<?xml version="1.0" standalone="no"?>
<!DOCTYPE svg PUBLIC "-//W3C//DTD SVG 1.1//EN" "http://www.w3.org/Graphics/SVG/1.1/DTD/svg11.dtd">
<svg version="1.1" width="1200" height="294" onload="init(evt)" viewBox="0 0 1200 294" xmlns="http://www.w3.org/2000/svg" xmlns:xlink="http://www.w3.org/1999/xlink">
<style type="text/css">
	text { font-family:Verdana; font-size:12px; fill:rgb(0,0,0); }
	#search { opacity:0.1; cursor:pointer; }
	#search:hover, #search.show { opacity:1; }
	#subtitle { text-anchor:middle; font-color:rgb(160,160,160); }
	#title { text-anchor:middle; font-size:17px}
	#unzoom { cursor:pointer; }
	#frames > *:hover { stroke:black; stroke-width:0.5; cursor:pointer; }
	.hide { display:none; }
	.parent { opacity:0.5; }
</style>
<script type="text/ecmascript">
<![CDATA[
	"use strict";
	var details, searchbtn, unzoombtn, matchedtxt, svg, searching;
	function init(evt) {
		details = document.getElementById("details").firstChild;
		searchbtn = document.getElementById("search");
		unzoombtn = document.getElementById("unzoom");
		matchedtxt = document.getElementById("matched");
		svg = document.getElementsByTagName("svg")[0];
		searching = 0;
	}

	window.addEventListener("click", function(e) {
		var target = find_group(e.target);
		if (target) {
			if (target.nodeName == "a") {
				if (e.ctrlKey === false) return;
				e.preventDefault();
			}
			if (target.classList.contains("parent")) unzoom();
			zoom(target);
		}
		else if (e.target.id == "unzoom") unzoom();
		else if (e.target.id == "search") search_prompt();
	}, false)

	// mouse-over for info
	// show
	window.addEventListener("mouseover", function(e) {
		var target = find_group(e.target);
		if (target) details.nodeValue = "Function: " + g_to_text(target);
	}, false)

	// clear
	window.addEventListener("mouseout", function(e) {
		var target = find_group(e.target);
		if (target) details.nodeValue = ' ';
	}, false)

	// ctrl-F for search
	window.addEventListener("keydown",function (e) {
		if (e.keyCode === 114 || (e.ctrlKey && e.keyCode === 70)) {
			e.preventDefault();
			search_prompt();
		}
	}, false)

	// functions
	function find_child(node, selector) {
		var children = node.querySelectorAll(selector);
		if (children.length) return children[0];
		return;
	}
	function find_group(node) {
		var parent = node.parentElement;
		if (!parent) return;
		if (parent.id == "frames") return node;
		return find_group(parent);
	}
	function orig_save(e, attr, val) {
		if (e.attributes["_orig_" + attr] != undefined) return;
		if (e.attributes[attr] == undefined) return;
		if (val == undefined) val = e.attributes[attr].value;
		e.setAttribute("_orig_" + attr, val);
	}
	function orig_load(e, attr) {
		if (e.attributes["_orig_"+attr] == undefined) return;
		e.attributes[attr].value = e.attributes["_orig_" + attr].value;
		e.removeAttribute("_orig_"+attr);
	}
	function g_to_text(e) {
		var text = find_child(e, "title").firstChild.nodeValue;
		return (text)
	}
	function g_to_func(e) {
		var func = g_to_text(e);
		// if there's any manipulation we want to do to the function
		// name before it's searched, do it here before returning.
		return (func);
	}
	function update_text(e) {
		var r = find_child(e, "rect");
		var t = find_child(e, "text");
		var w = parseFloat(r.attributes.width.value) -3;
		var txt = find_child(e, "title").textContent.replace(/\([^(]*\)$/,"");
		t.attributes.x.value = parseFloat(r.attributes.x.value) + 3;

		// Smaller than this size won't fit anything
		if (w < 2 * 12 * 0.59) {
			t.textContent = "";
			return;
		}

		t.textContent = txt;
		// Fit in full text width
		if (/^ *$/.test(txt) || t.getSubStringLength(0, txt.length) < w)
			return;

		for (var x = txt.length - 2; x > 0; x--) {
			if (t.getSubStringLength(0, x + 2) <= w) {
				t.textContent = txt.substring(0, x) + "..";
				return;
			}
		}
		t.textContent = "";
	}

	// zoom
	function zoom_reset(e) {
		if (e.attributes != undefined) {
			orig_load(e, "x");
			orig_load(e, "width");
		}
		if (e.childNodes == undefined) return;
		for (var i = 0, c = e.childNodes; i < c.length; i++) {
			zoom_reset(c[i]);
		}
	}
	function zoom_child(e, x, ratio) {
		if (e.attributes != undefined) {
			if (e.attributes.x != undefined) {
				orig_save(e, "x");
				e.attributes.x.value = (parseFloat(e.attributes.x.value) - x - 10) * ratio + 10;
				if (e.tagName == "text")
					e.attributes.x.value = find_child(e.parentNode, "rect[x]").attributes.x.value + 3;
			}
			if (e.attributes.width != undefined) {
				orig_save(e, "width");
				e.attributes.width.value = parseFloat(e.attributes.width.value) * ratio;
			}
		}

		if (e.childNodes == undefined) return;
		for (var i = 0, c = e.childNodes; i < c.length; i++) {
			zoom_child(c[i], x - 10, ratio);
		}
	}
	function zoom_parent(e) {
		if (e.attributes) {
			if (e.attributes.x != undefined) {
				orig_save(e, "x");
				e.attributes.x.value = 10;
			}
			if (e.attributes.width != undefined) {
				orig_save(e, "width");
				e.attributes.width.value = parseInt(svg.width.baseVal.value) - (10 * 2);
			}
		}
		if (e.childNodes == undefined) return;
		for (var i = 0, c = e.childNodes; i < c.length; i++) {
			zoom_parent(c[i]);
		}
	}
	function zoom(node) {
		var attr = find_child(node, "rect").attributes;
		var width = parseFloat(attr.width.value);
		var xmin = parseFloat(attr.x.value);
		var xmax = parseFloat(xmin + width);
		var ymin = parseFloat(attr.y.value);
		var ratio = (svg.width.baseVal.value - 2 * 10) / width;

		// XXX: Workaround for JavaScript float issues (fix me)
		var fudge = 0.0001;

		unzoombtn.classList.remove("hide");

		var el = document.getElementById("frames").children;
		for (var i = 0; i < el.length; i++) {
			var e = el[i];
			var a = find_child(e, "rect").attributes;
			var ex = parseFloat(a.x.value);
			var ew = parseFloat(a.width.value);
			var upstack;
			// Is it an ancestor
			if (0 == 0) {
				upstack = parseFloat(a.y.value) > ymin;
			} else {
				upstack = parseFloat(a.y.value) < ymin;
			}
			if (upstack) {
				// Direct ancestor
				if (ex <= xmin && (ex+ew+fudge) >= xmax) {
					e.classList.add("parent");
					zoom_parent(e);
					update_text(e);
				}
				// not in current path
				else
					e.classList.add("hide");
			}
			// Children maybe
			else {
				// no common path
				if (ex < xmin || ex + fudge >= xmax) {
					e.classList.add("hide");
				}
				else {
					zoom_child(e, xmin, ratio);
					update_text(e);
				}
			}
		}
	}
	function unzoom() {
		unzoombtn.classList.add("hide");
		var el = document.getElementById("frames").children;
		for(var i = 0; i < el.length; i++) {
			el[i].classList.remove("parent");
			el[i].classList.remove("hide");
			zoom_reset(el[i]);
			update_text(el[i]);
		}
	}

	// search
	function reset_search() {
		var el = document.querySelectorAll("#frames rect");
		for (var i = 0; i < el.length; i++) {
			orig_load(el[i], "fill")
		}
	}
	function search_prompt() {
		if (!searching) {
			var term = prompt("Enter a search term (regexp " +
			    "allowed, eg: ^ext4_)", "");
			if (term != null) {
				search(term)
			}
		} else {
			reset_search();
			searching = 0;
			searchbtn.classList.remove("show");
			searchbtn.firstChild.nodeValue = "Search"
			matchedtxt.classList.add("hide");
			matchedtxt.firstChild.nodeValue = ""
		}
	}
	function search(term) {
		var re = new RegExp(term);
		var el = document.getElementById("frames").children;
		var matches = new Object();
		var maxwidth = 0;
		for (var i = 0; i < el.length; i++) {
			var e = el[i];
			var func = g_to_func(e);
			var rect = find_child(e, "rect");
			if (func == null || rect == null)
				continue;

			// Save max width. Only works as we have a root frame
			var w = parseFloat(rect.attributes.width.value);
			if (w > maxwidth)
				maxwidth = w;

			if (func.match(re)) {
				// highlight
				var x = parseFloat(rect.attributes.x.value);
				orig_save(rect, "fill");
				rect.attributes.fill.value = "rgb(230,0,230)";

				// remember matches
				if (matches[x] == undefined) {
					matches[x] = w;
				} else {
					if (w > matches[x]) {
						// overwrite with parent
						matches[x] = w;
					}
				}
				searching = 1;
			}
		}
		if (!searching)
			return;

		searchbtn.classList.add("show");
		searchbtn.firstChild.nodeValue = "Reset Search";

		// calculate percent matched, excluding vertical overlap
		var count = 0;
		var lastx = -1;
		var lastw = 0;
		var keys = Array();
		for (k in matches) {
			if (matches.hasOwnProperty(k))
				keys.push(k);
		}
		// sort the matched frames by their x location
		// ascending, then width descending
		keys.sort(function(a, b){
			return a - b;
		});
		// Step through frames saving only the biggest bottom-up frames
		// thanks to the sort order. This relies on the tree property
		// where children are always smaller than their parents.
		var fudge = 0.0001;	// JavaScript floating point
		for (var k in keys) {
			var x = parseFloat(keys[k]);
			var w = matches[keys[k]];
			if (x >= lastx + lastw - fudge) {
				count += w;
				lastx = x;
				lastw = w;
			}
		}
		// display matched percent
		matchedtxt.classList.remove("hide");
		var pct = 100 * count / maxwidth;
		if (pct != 100) pct = pct.toFixed(1)
		matchedtxt.firstChild.nodeValue = "Matched: " + pct + "%";
	}
]]>
</script>
<rect x="0" y="0" width="100%" height="100%" fill="rgb(240,240,220)"/>
<text id="title" x="600" y="24">Flame Graph</text>
<text id="details" x="10" y="277"> </text>
<text id="unzoom" x="10" y="24" class="hide">Reset Zoom</text>
<text id="search" x="1090" y="24">Search</text>
<text id="matched" x="1090" y="277"> </text>
<g id="frames">
<g>
<title>all (847 samples, 100.00%)</title><rect x="10.0" y="243.0" width="1180.0" height="15" fill="#e25b5b" rx="2" ry="2"/>
<text x="13.0" y="254.0">all</text>
</g>
<g>
<title>[not_walkable] (1 samples, 0.12%)</title><rect x="10.0" y="227.0" width="1.4" height="15" fill="#f06e6e" rx="2" ry="2"/>
<text x="13.0" y="238.0"></text>
</g>
<g>
<title>java.lang.String (1 samples, 0.12%)</title><rect x="10.0" y="211.0" width="1.4" height="15" fill="#56c4c4" rx="2" ry="2"/>
<text x="13.0" y="222.0"></text>
</g>
<g>
<title>java/lang/NoSuchMethodError.&lt;init&gt; (1 samples, 0.12%)</title><rect x="11.4" y="227.0" width="1.4" height="15" fill="#63f463" rx="2" ry="2"/>
<text x="14.4" y="238.0"></text>
</g>
<g>
<title>java/lang/IncompatibleClassChangeError.&lt;init&gt; (1 samples, 0.12%)</title><rect x="11.4" y="211.0" width="1.4" height="15" fill="#64f564" rx="2" ry="2"/>
<text x="14.4" y="222.0"></text>
</g>
<g>
<title>java/lang/LinkageError.&lt;init&gt; (1 samples, 0.12%)</title><rect x="11.4" y="195.0" width="1.4" height="15" fill="#59ea59" rx="2" ry="2"/>
<text x="14.4" y="206.0"></text>
</g>
<g>
<title>java/lang/Error.&lt;init&gt; (1 samples, 0.12%)</title><rect x="11.4" y="179.0" width="1.4" height="15" fill="#6afb6a" rx="2" ry="2"/>
<text x="14.4" y="190.0"></text>
</g>
<g>
<title>java/lang/Throwable.&lt;init&gt; (1 samples, 0.12%)</title><rect x="11.4" y="163.0" width="1.4" height="15" fill="#63f463" rx="2" ry="2"/>
<text x="14.4" y="174.0"></text>
</g>
<g>
<title>java/lang/Throwable.fillInStackTrace (1 samples, 0.12%)</title><rect x="11.4" y="147.0" width="1.4" height="15" fill="#5aeb5a" rx="2" ry="2"/>
<text x="14.4" y="158.0"></text>
</g>
<g>
<title>java/lang/Throwable.fillInStackTrace (1 samples, 0.12%)</title><rect x="11.4" y="131.0" width="1.4" height="15" fill="#51e251" rx="2" ry="2"/>
<text x="14.4" y="142.0"></text>
</g>
<g>
<title>long[] (1 samples, 0.12%)</title><rect x="11.4" y="115.0" width="1.4" height="15" fill="#f89400" rx="2" ry="2"/>
<text x="14.4" y="126.0"></text>
</g>
<g>
<title>one/nio/server/SelectorThread.run (845 samples, 99.76%)</title><rect x="12.8" y="227.0" width="1177.2" height="15" fill="#68f968" rx="2" ry="2"/>
<text x="15.8" y="238.0">one/nio/server/SelectorThread.run</text>
</g>
<g>
<title>one/nio/net/NativeSelector.select (26 samples, 3.07%)</title><rect x="12.8" y="211.0" width="36.2" height="15" fill="#64f564" rx="2" ry="2"/>
<text x="15.8" y="222.0">one..</text>
</g>
<g>
<title>one.nio.net.NativeSelector$2 (26 samples, 3.07%)</title><rect x="12.8" y="195.0" width="36.2" height="15" fill="#64d2d2" rx="2" ry="2"/>
<text x="15.8" y="206.0">one..</text>
</g>
<g>
<title>one/nio/net/Session.process (819 samples, 96.69%)</title><rect x="49.0" y="211.0" width="1141.0" height="15" fill="#6bfc6b" rx="2" ry="2"/>
<text x="52.0" y="222.0">one/nio/net/Session.process</text>
</g>
<g>
<title>one/nio/http/HttpSession.processRead (819 samples, 96.69%)</title><rect x="49.0" y="195.0" width="1141.0" height="15" fill="#59ea59" rx="2" ry="2"/>
<text x="52.0" y="206.0">one/nio/http/HttpSession.processRead</text>
</g>
<g>
<title>one/nio/http/HttpSession.processHttpBuffer (819 samples, 96.69%)</title><rect x="49.0" y="179.0" width="1141.0" height="15" fill="#66f766" rx="2" ry="2"/>
<text x="52.0" y="190.0">one/nio/http/HttpSession.processHttpBuffer</text>
</g>
<g>
<title>one/nio/http/HttpSession.handleParsedRequest (506 samples, 59.74%)</title><rect x="49.0" y="163.0" width="704.9" height="15" fill="#58e958" rx="2" ry="2"/>
<text x="52.0" y="174.0">one/nio/http/HttpSession.handleParsedRequest</text>
</g>
<g>
<title>one/nio/http/HttpServer.handleRequest (506 samples, 59.74%)</title><rect x="49.0" y="147.0" width="704.9" height="15" fill="#68f968" rx="2" ry="2"/>
<text x="52.0" y="158.0">one/nio/http/HttpServer.handleRequest</text>
</g>
<g>
<title>RequestHandler1_entity.handleRequest (459 samples, 54.19%)</title><rect x="49.0" y="131.0" width="639.5" height="15" fill="#55e655" rx="2" ry="2"/>
<text x="52.0" y="142.0">RequestHandler1_entity.handleRequest</text>
</g>
<g>
<title>one/nio/http/HttpSession.sendResponse (108 samples, 12.75%)</title><rect x="49.0" y="115.0" width="150.5" height="15" fill="#61f261" rx="2" ry="2"/>
<text x="52.0" y="126.0">one/nio/http/HttpSe..</text>
</g>
<g>
<title>one/nio/http/HttpSession.writeResponse (108 samples, 12.75%)</title><rect x="49.0" y="99.0" width="150.5" height="15" fill="#51e251" rx="2" ry="2"/>
<text x="52.0" y="110.0">one/nio/http/HttpSe..</text>
</g>
<g>
<title>one/nio/http/Response.toBytes (63 samples, 7.44%)</title><rect x="49.0" y="83.0" width="87.8" height="15" fill="#53e453" rx="2" ry="2"/>
<text x="52.0" y="94.0">one/nio/ht..</text>
</g>
<g>
<title>one/nio/util/ByteArrayBuilder.&lt;init&gt; (63 samples, 7.44%)</title><rect x="49.0" y="67.0" width="87.8" height="15" fill="#54e554" rx="2" ry="2"/>
<text x="52.0" y="78.0">one/nio/ut..</text>
</g>
<g>
<title>byte[] (63 samples, 7.44%)</title><rect x="49.0" y="51.0" width="87.8" height="15" fill="#57c5c5" rx="2" ry="2"/>
<text x="52.0" y="62.0">byte[]</text>
</g>
<g>
<title>one/nio/net/Session.write (45 samples, 5.31%)</title><rect x="136.8" y="83.0" width="62.7" height="15" fill="#54e554" rx="2" ry="2"/>
<text x="139.8" y="94.0">one/ni..</text>
</g>
<g>
<title>one.nio.net.Session$ArrayQueueItem (45 samples, 5.31%)</title><rect x="136.8" y="67.0" width="62.7" height="15" fill="#61cfcf" rx="2" ry="2"/>
<text x="139.8" y="78.0">one.ni..</text>
</g>
<g>
<title>one/nio/http/Request.getParameter (36 samples, 4.25%)</title><rect x="199.5" y="115.0" width="50.1" height="15" fill="#51e251" rx="2" ry="2"/>
<text x="202.5" y="126.0">one/n..</text>
</g>
<g>
<title>java/lang/String.substring (36 samples, 4.25%)</title><rect x="199.5" y="99.0" width="50.1" height="15" fill="#6afb6a" rx="2" ry="2"/>
<text x="202.5" y="110.0">java/..</text>
</g>
<g>
<title>java/lang/StringLatin1.newString (36 samples, 4.25%)</title><rect x="199.5" y="83.0" width="50.1" height="15" fill="#6cfd6c" rx="2" ry="2"/>
<text x="202.5" y="94.0">java/..</text>
</g>
<g>
<title>java.lang.String (18 samples, 2.13%)</title><rect x="199.5" y="67.0" width="25.0" height="15" fill="#51bfbf" rx="2" ry="2"/>
<text x="202.5" y="78.0">j..</text>
</g>
<g>
<title>java/util/Arrays.copyOfRange (18 samples, 2.13%)</title><rect x="224.5" y="67.0" width="25.1" height="15" fill="#6bfc6b" rx="2" ry="2"/>
<text x="227.5" y="78.0">j..</text>
</g>
<g>
<title>byte[] (18 samples, 2.13%)</title><rect x="224.5" y="51.0" width="25.1" height="15" fill="#5ecccc" rx="2" ry="2"/>
<text x="227.5" y="62.0">b..</text>
</g>
<g>
<title>ru/mail/polis/service/temnovochka/ServiceImpl.entity (315 samples, 37.19%)</title><rect x="249.6" y="115.0" width="438.9" height="15" fill="#57e857" rx="2" ry="2"/>
<text x="252.6" y="126.0">ru/mail/polis/service/temnovochka/ServiceImpl.entity</text>
</g>
<g>
<title>java/lang/String.getBytes (17 samples, 2.01%)</title><rect x="249.6" y="99.0" width="23.7" height="15" fill="#61f261" rx="2" ry="2"/>
<text x="252.6" y="110.0">j..</text>
</g>
<g>
<title>java/lang/StringCoding.encode (17 samples, 2.01%)</title><rect x="249.6" y="83.0" width="23.7" height="15" fill="#55e655" rx="2" ry="2"/>
<text x="252.6" y="94.0">j..</text>
</g>
<g>
<title>java/lang/StringCoding.encodeUTF8 (17 samples, 2.01%)</title><rect x="249.6" y="67.0" width="23.7" height="15" fill="#61f261" rx="2" ry="2"/>
<text x="252.6" y="78.0">j..</text>
</g>
<g>
<title>java/util/Arrays.copyOf (17 samples, 2.01%)</title><rect x="249.6" y="51.0" width="23.7" height="15" fill="#5eef5e" rx="2" ry="2"/>
<text x="252.6" y="62.0">j..</text>
</g>
<g>
<title>byte[] (17 samples, 2.01%)</title><rect x="249.6" y="35.0" width="23.7" height="15" fill="#68d6d6" rx="2" ry="2"/>
<text x="252.6" y="46.0">b..</text>
</g>
<g>
<title>java/nio/ByteBuffer.wrap (32 samples, 3.78%)</title><rect x="273.3" y="99.0" width="44.6" height="15" fill="#6bfc6b" rx="2" ry="2"/>
<text x="276.3" y="110.0">java..</text>
</g>
<g>
<title>java/nio/ByteBuffer.wrap (32 samples, 3.78%)</title><rect x="273.3" y="83.0" width="44.6" height="15" fill="#5ff05f" rx="2" ry="2"/>
<text x="276.3" y="94.0">java..</text>
</g>
<g>
<title>java.nio.HeapByteBuffer (32 samples, 3.78%)</title><rect x="273.3" y="67.0" width="44.6" height="15" fill="#61cfcf" rx="2" ry="2"/>
<text x="276.3" y="78.0">java..</text>
</g>
<g>
<title>ru/mail/polis/service/temnovochka/ServiceImpl.responseProcessEntity (266 samples, 31.40%)</title><rect x="317.9" y="99.0" width="370.6" height="15" fill="#65f665" rx="2" ry="2"/>
<text x="320.9" y="110.0">ru/mail/polis/service/temnovochka/ServiceImpl.resp..</text>
</g>
<g>
<title>one/nio/http/Response.ok (101 samples, 11.92%)</title><rect x="317.9" y="83.0" width="140.7" height="15" fill="#56e756" rx="2" ry="2"/>
<text x="320.9" y="94.0">one/nio/http/Respo..</text>
</g>
<g>
<title>one.nio.http.Response (17 samples, 2.01%)</title><rect x="317.9" y="67.0" width="23.7" height="15" fill="#57c5c5" rx="2" ry="2"/>
<text x="320.9" y="78.0">o..</text>
</g>
<g>
<title>one/nio/http/Response.&lt;init&gt; (84 samples, 9.92%)</title><rect x="341.6" y="67.0" width="117.0" height="15" fill="#63f463" rx="2" ry="2"/>
<text x="344.6" y="78.0">one/nio/http/R..</text>
</g>
<g>
<title>byte[] (44 samples, 5.19%)</title><rect x="341.6" y="51.0" width="61.3" height="15" fill="#60cece" rx="2" ry="2"/>
<text x="344.6" y="62.0">byte[]</text>
</g>
<g>
<title>java.lang.String[] (18 samples, 2.13%)</title><rect x="402.9" y="51.0" width="25.0" height="15" fill="#50bebe" rx="2" ry="2"/>
<text x="405.9" y="62.0">j..</text>
</g>
<g>
<title>java.lang.String (22 samples, 2.60%)</title><rect x="427.9" y="51.0" width="30.7" height="15" fill="#6bd9d9" rx="2" ry="2"/>
<text x="430.9" y="62.0">ja..</text>
</g>
<g>
<title>ru/mail/polis/dao/ByteArrayUtils.getArrayFromByteBuffer (72 samples, 8.50%)</title><rect x="458.6" y="83.0" width="100.3" height="15" fill="#5aeb5a" rx="2" ry="2"/>
<text x="461.6" y="94.0">ru/mail/poli..</text>
</g>
<g>
<title>byte[] (20 samples, 2.36%)</title><rect x="458.6" y="67.0" width="27.9" height="15" fill="#56c4c4" rx="2" ry="2"/>
<text x="461.6" y="78.0">b..</text>
</g>
<g>
<title>java/nio/HeapByteBuffer.duplicate (52 samples, 6.14%)</title><rect x="486.5" y="67.0" width="72.4" height="15" fill="#5ff05f" rx="2" ry="2"/>
<text x="489.5" y="78.0">java/nio..</text>
</g>
<g>
<title>java.nio.HeapByteBuffer (52 samples, 6.14%)</title><rect x="486.5" y="51.0" width="72.4" height="15" fill="#5ccaca" rx="2" ry="2"/>
<text x="489.5" y="62.0">java.nio..</text>
</g>
<g>
<title>ru/mail/polis/dao/DAOImpl.get (93 samples, 10.98%)</title><rect x="558.9" y="83.0" width="129.6" height="15" fill="#59ea59" rx="2" ry="2"/>
<text x="561.9" y="94.0">ru/mail/polis/da..</text>
</g>
<g>
<title>java/nio/ByteBuffer.wrap (29 samples, 3.42%)</title><rect x="558.9" y="67.0" width="40.4" height="15" fill="#64f564" rx="2" ry="2"/>
<text x="561.9" y="78.0">jav..</text>
</g>
<g>
<title>java/nio/ByteBuffer.wrap (29 samples, 3.42%)</title><rect x="558.9" y="51.0" width="40.4" height="15" fill="#63f463" rx="2" ry="2"/>
<text x="561.9" y="62.0">jav..</text>
</g>
<g>
<title>java.nio.HeapByteBuffer (29 samples, 3.42%)</title><rect x="558.9" y="35.0" width="40.4" height="15" fill="#5dcbcb" rx="2" ry="2"/>
<text x="561.9" y="46.0">jav..</text>
</g>
<g>
<title>org/rocksdb/RocksDB.get (40 samples, 4.72%)</title><rect x="599.3" y="67.0" width="55.7" height="15" fill="#58e958" rx="2" ry="2"/>
<text x="602.3" y="78.0">org/r..</text>
</g>
<g>
<title>org/rocksdb/RocksDB.get (40 samples, 4.72%)</title><rect x="599.3" y="51.0" width="55.7" height="15" fill="#65f665" rx="2" ry="2"/>
<text x="602.3" y="62.0">org/r..</text>
</g>
<g>
<title>byte[] (40 samples, 4.72%)</title><rect x="599.3" y="35.0" width="55.7" height="15" fill="#59c7c7" rx="2" ry="2"/>
<text x="602.3" y="46.0">byte[]</text>
</g>
<g>
<title>ru/mail/polis/dao/ByteArrayUtils.packingKey (24 samples, 2.83%)</title><rect x="655.0" y="67.0" width="33.5" height="15" fill="#56e756" rx="2" ry="2"/>
<text x="658.0" y="78.0">ru..</text>
</g>
<g>
<title>ru/mail/polis/dao/ByteArrayUtils.getArrayFromByteBuffer (24 samples, 2.83%)</title><rect x="655.0" y="51.0" width="33.5" height="15" fill="#66f766" rx="2" ry="2"/>
<text x="658.0" y="62.0">ru..</text>
</g>
<g>
<title>byte[] (24 samples, 2.83%)</title><rect x="655.0" y="35.0" width="33.5" height="15" fill="#57c5c5" rx="2" ry="2"/>
<text x="658.0" y="46.0">by..</text>
</g>
<g>
<title>one/nio/http/Request.getPath (47 samples, 5.55%)</title><rect x="688.5" y="131.0" width="65.4" height="15" fill="#64f564" rx="2" ry="2"/>
<text x="691.5" y="142.0">one/nio..</text>
</g>
<g>
<title>java/lang/String.substring (47 samples, 5.55%)</title><rect x="688.5" y="115.0" width="65.4" height="15" fill="#50e150" rx="2" ry="2"/>
<text x="691.5" y="126.0">java/la..</text>
</g>
<g>
<title>java/lang/StringLatin1.newString (47 samples, 5.55%)</title><rect x="688.5" y="99.0" width="65.4" height="15" fill="#69fa69" rx="2" ry="2"/>
<text x="691.5" y="110.0">java/la..</text>
</g>
<g>
<title>java.lang.String (7 samples, 0.83%)</title><rect x="688.5" y="83.0" width="9.7" height="15" fill="#69d7d7" rx="2" ry="2"/>
<text x="691.5" y="94.0"></text>
</g>
<g>
<title>java/util/Arrays.copyOfRange (40 samples, 4.72%)</title><rect x="698.2" y="83.0" width="55.7" height="15" fill="#62f362" rx="2" ry="2"/>
<text x="701.2" y="94.0">java/..</text>
</g>
<g>
<title>byte[] (40 samples, 4.72%)</title><rect x="698.2" y="67.0" width="55.7" height="15" fill="#59c7c7" rx="2" ry="2"/>
<text x="701.2" y="78.0">byte[]</text>
</g>
<g>
<title>one/nio/http/HttpSession.parseRequest (220 samples, 25.97%)</title><rect x="753.9" y="163.0" width="306.5" height="15" fill="#64f564" rx="2" ry="2"/>
<text x="756.9" y="174.0">one/nio/http/HttpSession.parseRequest</text>
</g>
<g>
<title>one.nio.http.Request (34 samples, 4.01%)</title><rect x="753.9" y="147.0" width="47.4" height="15" fill="#5fcdcd" rx="2" ry="2"/>
<text x="756.9" y="158.0">one...</text>
</g>
<g>
<title>one/nio/http/Request.&lt;init&gt; (83 samples, 9.80%)</title><rect x="801.3" y="147.0" width="115.6" height="15" fill="#69fa69" rx="2" ry="2"/>
<text x="804.3" y="158.0">one/nio/http/R..</text>
</g>
<g>
<title>java.lang.String[] (83 samples, 9.80%)</title><rect x="801.3" y="131.0" width="115.6" height="15" fill="#57c5c5" rx="2" ry="2"/>
<text x="804.3" y="142.0">java.lang.Stri..</text>
</g>
<g>
<title>one/nio/util/Utf8.read (103 samples, 12.16%)</title><rect x="916.9" y="147.0" width="143.5" height="15" fill="#57e857" rx="2" ry="2"/>
<text x="919.9" y="158.0">one/nio/util/Utf8...</text>
</g>
<g>
<title>one/nio/util/Utf8.read (103 samples, 12.16%)</title><rect x="916.9" y="131.0" width="143.5" height="15" fill="#52e352" rx="2" ry="2"/>
<text x="919.9" y="142.0">one/nio/util/Utf8...</text>
</g>
<g>
<title>char[] (45 samples, 5.31%)</title><rect x="916.9" y="115.0" width="62.7" height="15" fill="#5fcdcd" rx="2" ry="2"/>
<text x="919.9" y="126.0">char[]</text>
</g>
<g>
<title>java.lang.String (22 samples, 2.60%)</title><rect x="979.6" y="115.0" width="30.7" height="15" fill="#6ad8d8" rx="2" ry="2"/>
<text x="982.6" y="126.0">ja..</text>
</g>
<g>
<title>java/lang/String.&lt;init&gt; (36 samples, 4.25%)</title><rect x="1010.3" y="115.0" width="50.1" height="15" fill="#62f362" rx="2" ry="2"/>
<text x="1013.3" y="126.0">java/..</text>
</g>
<g>
<title>java/lang/String.&lt;init&gt; (36 samples, 4.25%)</title><rect x="1010.3" y="99.0" width="50.1" height="15" fill="#5ff05f" rx="2" ry="2"/>
<text x="1013.3" y="110.0">java/..</text>
</g>
<g>
<title>java/lang/StringUTF16.compress (36 samples, 4.25%)</title><rect x="1010.3" y="83.0" width="50.1" height="15" fill="#68f968" rx="2" ry="2"/>
<text x="1013.3" y="94.0">java/..</text>
</g>
<g>
<title>byte[] (36 samples, 4.25%)</title><rect x="1010.3" y="67.0" width="50.1" height="15" fill="#6cdada" rx="2" ry="2"/>
<text x="1013.3" y="78.0">byte[]</text>
</g>
<g>
<title>one/nio/util/Utf8.read (93 samples, 10.98%)</title><rect x="1060.4" y="163.0" width="129.6" height="15" fill="#66f766" rx="2" ry="2"/>
<text x="1063.4" y="174.0">one/nio/util/Utf..</text>
</g>
<g>
<title>one/nio/util/Utf8.read (93 samples, 10.98%)</title><rect x="1060.4" y="147.0" width="129.6" height="15" fill="#5aeb5a" rx="2" ry="2"/>
<text x="1063.4" y="158.0">one/nio/util/Utf..</text>
</g>
<g>
<title>char[] (34 samples, 4.01%)</title><rect x="1060.4" y="131.0" width="47.4" height="15" fill="#5ac8c8" rx="2" ry="2"/>
<text x="1063.4" y="142.0">char[]</text>
</g>
<g>
<title>java.lang.String (29 samples, 3.42%)</title><rect x="1107.8" y="131.0" width="40.4" height="15" fill="#51bfbf" rx="2" ry="2"/>
<text x="1110.8" y="142.0">jav..</text>
</g>
<g>
<title>java/lang/String.&lt;init&gt; (30 samples, 3.54%)</title><rect x="1148.2" y="131.0" width="41.8" height="15" fill="#50e150" rx="2" ry="2"/>
<text x="1151.2" y="142.0">jav..</text>
</g>
<g>
<title>java/lang/String.&lt;init&gt; (30 samples, 3.54%)</title><rect x="1148.2" y="115.0" width="41.8" height="15" fill="#50e150" rx="2" ry="2"/>
<text x="1151.2" y="126.0">jav..</text>
</g>
<g>
<title>java/lang/StringUTF16.compress (30 samples, 3.54%)</title><rect x="1148.2" y="99.0" width="41.8" height="15" fill="#5eef5e" rx="2" ry="2"/>
<text x="1151.2" y="110.0">jav..</text>
</g>
<g>
<title>byte[] (30 samples, 3.54%)</title><rect x="1148.2" y="83.0" width="41.8" height="15" fill="#58c6c6" rx="2" ry="2"/>
<text x="1151.2" y="94.0">byt..</text>
</g>
</g>
</svg>
