<?xml version="1.0" standalone="no"?>
<!DOCTYPE svg PUBLIC "-//W3C//DTD SVG 1.1//EN" "http://www.w3.org/Graphics/SVG/1.1/DTD/svg11.dtd">
<svg version="1.1" width="1200" height="310" onload="init(evt)" viewBox="0 0 1200 310" xmlns="http://www.w3.org/2000/svg" xmlns:xlink="http://www.w3.org/1999/xlink">
<style type="text/css">
	text { font-family:Verdana; font-size:12px; fill:rgb(0,0,0); }
	#search { opacity:0.1; cursor:pointer; }
	#search:hover, #search.show { opacity:1; }
	#subtitle { text-anchor:middle; font-color:rgb(160,160,160); }
	#title { text-anchor:middle; font-size:17px}
	#unzoom { cursor:pointer; }
	#frames > *:hover { stroke:black; stroke-width:0.5; cursor:pointer; }
	.hide { display:none; }
	.parent { opacity:0.5; }
</style>
<script type="text/ecmascript">
<![CDATA[
	"use strict";
	var details, searchbtn, unzoombtn, matchedtxt, svg, searching;
	function init(evt) {
		details = document.getElementById("details").firstChild;
		searchbtn = document.getElementById("search");
		unzoombtn = document.getElementById("unzoom");
		matchedtxt = document.getElementById("matched");
		svg = document.getElementsByTagName("svg")[0];
		searching = 0;
	}

	window.addEventListener("click", function(e) {
		var target = find_group(e.target);
		if (target) {
			if (target.nodeName == "a") {
				if (e.ctrlKey === false) return;
				e.preventDefault();
			}
			if (target.classList.contains("parent")) unzoom();
			zoom(target);
		}
		else if (e.target.id == "unzoom") unzoom();
		else if (e.target.id == "search") search_prompt();
	}, false)

	// mouse-over for info
	// show
	window.addEventListener("mouseover", function(e) {
		var target = find_group(e.target);
		if (target) details.nodeValue = "Function: " + g_to_text(target);
	}, false)

	// clear
	window.addEventListener("mouseout", function(e) {
		var target = find_group(e.target);
		if (target) details.nodeValue = ' ';
	}, false)

	// ctrl-F for search
	window.addEventListener("keydown",function (e) {
		if (e.keyCode === 114 || (e.ctrlKey && e.keyCode === 70)) {
			e.preventDefault();
			search_prompt();
		}
	}, false)

	// functions
	function find_child(node, selector) {
		var children = node.querySelectorAll(selector);
		if (children.length) return children[0];
		return;
	}
	function find_group(node) {
		var parent = node.parentElement;
		if (!parent) return;
		if (parent.id == "frames") return node;
		return find_group(parent);
	}
	function orig_save(e, attr, val) {
		if (e.attributes["_orig_" + attr] != undefined) return;
		if (e.attributes[attr] == undefined) return;
		if (val == undefined) val = e.attributes[attr].value;
		e.setAttribute("_orig_" + attr, val);
	}
	function orig_load(e, attr) {
		if (e.attributes["_orig_"+attr] == undefined) return;
		e.attributes[attr].value = e.attributes["_orig_" + attr].value;
		e.removeAttribute("_orig_"+attr);
	}
	function g_to_text(e) {
		var text = find_child(e, "title").firstChild.nodeValue;
		return (text)
	}
	function g_to_func(e) {
		var func = g_to_text(e);
		// if there's any manipulation we want to do to the function
		// name before it's searched, do it here before returning.
		return (func);
	}
	function update_text(e) {
		var r = find_child(e, "rect");
		var t = find_child(e, "text");
		var w = parseFloat(r.attributes.width.value) -3;
		var txt = find_child(e, "title").textContent.replace(/\([^(]*\)$/,"");
		t.attributes.x.value = parseFloat(r.attributes.x.value) + 3;

		// Smaller than this size won't fit anything
		if (w < 2 * 12 * 0.59) {
			t.textContent = "";
			return;
		}

		t.textContent = txt;
		// Fit in full text width
		if (/^ *$/.test(txt) || t.getSubStringLength(0, txt.length) < w)
			return;

		for (var x = txt.length - 2; x > 0; x--) {
			if (t.getSubStringLength(0, x + 2) <= w) {
				t.textContent = txt.substring(0, x) + "..";
				return;
			}
		}
		t.textContent = "";
	}

	// zoom
	function zoom_reset(e) {
		if (e.attributes != undefined) {
			orig_load(e, "x");
			orig_load(e, "width");
		}
		if (e.childNodes == undefined) return;
		for (var i = 0, c = e.childNodes; i < c.length; i++) {
			zoom_reset(c[i]);
		}
	}
	function zoom_child(e, x, ratio) {
		if (e.attributes != undefined) {
			if (e.attributes.x != undefined) {
				orig_save(e, "x");
				e.attributes.x.value = (parseFloat(e.attributes.x.value) - x - 10) * ratio + 10;
				if (e.tagName == "text")
					e.attributes.x.value = find_child(e.parentNode, "rect[x]").attributes.x.value + 3;
			}
			if (e.attributes.width != undefined) {
				orig_save(e, "width");
				e.attributes.width.value = parseFloat(e.attributes.width.value) * ratio;
			}
		}

		if (e.childNodes == undefined) return;
		for (var i = 0, c = e.childNodes; i < c.length; i++) {
			zoom_child(c[i], x - 10, ratio);
		}
	}
	function zoom_parent(e) {
		if (e.attributes) {
			if (e.attributes.x != undefined) {
				orig_save(e, "x");
				e.attributes.x.value = 10;
			}
			if (e.attributes.width != undefined) {
				orig_save(e, "width");
				e.attributes.width.value = parseInt(svg.width.baseVal.value) - (10 * 2);
			}
		}
		if (e.childNodes == undefined) return;
		for (var i = 0, c = e.childNodes; i < c.length; i++) {
			zoom_parent(c[i]);
		}
	}
	function zoom(node) {
		var attr = find_child(node, "rect").attributes;
		var width = parseFloat(attr.width.value);
		var xmin = parseFloat(attr.x.value);
		var xmax = parseFloat(xmin + width);
		var ymin = parseFloat(attr.y.value);
		var ratio = (svg.width.baseVal.value - 2 * 10) / width;

		// XXX: Workaround for JavaScript float issues (fix me)
		var fudge = 0.0001;

		unzoombtn.classList.remove("hide");

		var el = document.getElementById("frames").children;
		for (var i = 0; i < el.length; i++) {
			var e = el[i];
			var a = find_child(e, "rect").attributes;
			var ex = parseFloat(a.x.value);
			var ew = parseFloat(a.width.value);
			var upstack;
			// Is it an ancestor
			if (0 == 0) {
				upstack = parseFloat(a.y.value) > ymin;
			} else {
				upstack = parseFloat(a.y.value) < ymin;
			}
			if (upstack) {
				// Direct ancestor
				if (ex <= xmin && (ex+ew+fudge) >= xmax) {
					e.classList.add("parent");
					zoom_parent(e);
					update_text(e);
				}
				// not in current path
				else
					e.classList.add("hide");
			}
			// Children maybe
			else {
				// no common path
				if (ex < xmin || ex + fudge >= xmax) {
					e.classList.add("hide");
				}
				else {
					zoom_child(e, xmin, ratio);
					update_text(e);
				}
			}
		}
	}
	function unzoom() {
		unzoombtn.classList.add("hide");
		var el = document.getElementById("frames").children;
		for(var i = 0; i < el.length; i++) {
			el[i].classList.remove("parent");
			el[i].classList.remove("hide");
			zoom_reset(el[i]);
			update_text(el[i]);
		}
	}

	// search
	function reset_search() {
		var el = document.querySelectorAll("#frames rect");
		for (var i = 0; i < el.length; i++) {
			orig_load(el[i], "fill")
		}
	}
	function search_prompt() {
		if (!searching) {
			var term = prompt("Enter a search term (regexp " +
			    "allowed, eg: ^ext4_)", "");
			if (term != null) {
				search(term)
			}
		} else {
			reset_search();
			searching = 0;
			searchbtn.classList.remove("show");
			searchbtn.firstChild.nodeValue = "Search"
			matchedtxt.classList.add("hide");
			matchedtxt.firstChild.nodeValue = ""
		}
	}
	function search(term) {
		var re = new RegExp(term);
		var el = document.getElementById("frames").children;
		var matches = new Object();
		var maxwidth = 0;
		for (var i = 0; i < el.length; i++) {
			var e = el[i];
			var func = g_to_func(e);
			var rect = find_child(e, "rect");
			if (func == null || rect == null)
				continue;

			// Save max width. Only works as we have a root frame
			var w = parseFloat(rect.attributes.width.value);
			if (w > maxwidth)
				maxwidth = w;

			if (func.match(re)) {
				// highlight
				var x = parseFloat(rect.attributes.x.value);
				orig_save(rect, "fill");
				rect.attributes.fill.value = "rgb(230,0,230)";

				// remember matches
				if (matches[x] == undefined) {
					matches[x] = w;
				} else {
					if (w > matches[x]) {
						// overwrite with parent
						matches[x] = w;
					}
				}
				searching = 1;
			}
		}
		if (!searching)
			return;

		searchbtn.classList.add("show");
		searchbtn.firstChild.nodeValue = "Reset Search";

		// calculate percent matched, excluding vertical overlap
		var count = 0;
		var lastx = -1;
		var lastw = 0;
		var keys = Array();
		for (k in matches) {
			if (matches.hasOwnProperty(k))
				keys.push(k);
		}
		// sort the matched frames by their x location
		// ascending, then width descending
		keys.sort(function(a, b){
			return a - b;
		});
		// Step through frames saving only the biggest bottom-up frames
		// thanks to the sort order. This relies on the tree property
		// where children are always smaller than their parents.
		var fudge = 0.0001;	// JavaScript floating point
		for (var k in keys) {
			var x = parseFloat(keys[k]);
			var w = matches[keys[k]];
			if (x >= lastx + lastw - fudge) {
				count += w;
				lastx = x;
				lastw = w;
			}
		}
		// display matched percent
		matchedtxt.classList.remove("hide");
		var pct = 100 * count / maxwidth;
		if (pct != 100) pct = pct.toFixed(1)
		matchedtxt.firstChild.nodeValue = "Matched: " + pct + "%";
	}
]]>
</script>
<rect x="0" y="0" width="100%" height="100%" fill="rgb(240,240,220)"/>
<text id="title" x="600" y="24">Flame Graph</text>
<text id="details" x="10" y="293"> </text>
<text id="unzoom" x="10" y="24" class="hide">Reset Zoom</text>
<text id="search" x="1090" y="24">Search</text>
<text id="matched" x="1090" y="293"> </text>
<g id="frames">
<g>
<title>all (1,038 samples, 100.00%)</title><rect x="10.0" y="259.0" width="1180.0" height="15" fill="#e86464" rx="2" ry="2"/>
<text x="13.0" y="270.0">all</text>
</g>
<g>
<title>[not_walkable] (1 samples, 0.10%)</title><rect x="10.0" y="243.0" width="1.1" height="15" fill="#f77878" rx="2" ry="2"/>
<text x="13.0" y="254.0"></text>
</g>
<g>
<title>java.lang.String (1 samples, 0.10%)</title><rect x="10.0" y="227.0" width="1.1" height="15" fill="#6cdada" rx="2" ry="2"/>
<text x="13.0" y="238.0"></text>
</g>
<g>
<title>one/nio/server/SelectorThread.run (1,037 samples, 99.90%)</title><rect x="11.1" y="243.0" width="1178.9" height="15" fill="#59ea59" rx="2" ry="2"/>
<text x="14.1" y="254.0">one/nio/server/SelectorThread.run</text>
</g>
<g>
<title>one/nio/net/NativeSelector.select (22 samples, 2.12%)</title><rect x="11.1" y="227.0" width="25.0" height="15" fill="#5ced5c" rx="2" ry="2"/>
<text x="14.1" y="238.0">o..</text>
</g>
<g>
<title>one.nio.net.NativeSelector$2 (22 samples, 2.12%)</title><rect x="11.1" y="211.0" width="25.0" height="15" fill="#60cece" rx="2" ry="2"/>
<text x="14.1" y="222.0">o..</text>
</g>
<g>
<title>one/nio/net/Session.process (1,015 samples, 97.78%)</title><rect x="36.1" y="227.0" width="1153.9" height="15" fill="#60f160" rx="2" ry="2"/>
<text x="39.1" y="238.0">one/nio/net/Session.process</text>
</g>
<g>
<title>one/nio/http/HttpSession.processRead (1,015 samples, 97.78%)</title><rect x="36.1" y="211.0" width="1153.9" height="15" fill="#62f362" rx="2" ry="2"/>
<text x="39.1" y="222.0">one/nio/http/HttpSession.processRead</text>
</g>
<g>
<title>one/nio/http/HttpSession.processHttpBuffer (1,015 samples, 97.78%)</title><rect x="36.1" y="195.0" width="1153.9" height="15" fill="#55e655" rx="2" ry="2"/>
<text x="39.1" y="206.0">one/nio/http/HttpSession.processHttpBuffer</text>
</g>
<g>
<title>one/nio/http/HttpSession.handleParsedRequest (532 samples, 51.25%)</title><rect x="36.1" y="179.0" width="604.8" height="15" fill="#5eef5e" rx="2" ry="2"/>
<text x="39.1" y="190.0">one/nio/http/HttpSession.handleParsedRequest</text>
</g>
<g>
<title>one/nio/http/HttpServer.handleRequest (532 samples, 51.25%)</title><rect x="36.1" y="163.0" width="604.8" height="15" fill="#5aeb5a" rx="2" ry="2"/>
<text x="39.1" y="174.0">one/nio/http/HttpServer.handleRequest</text>
</g>
<g>
<title>RequestHandler1_entity.handleRequest (493 samples, 47.50%)</title><rect x="36.1" y="147.0" width="560.5" height="15" fill="#63f463" rx="2" ry="2"/>
<text x="39.1" y="158.0">RequestHandler1_entity.handleRequest</text>
</g>
<g>
<title>one/nio/http/HttpSession.sendResponse (120 samples, 11.56%)</title><rect x="36.1" y="131.0" width="136.5" height="15" fill="#6bfc6b" rx="2" ry="2"/>
<text x="39.1" y="142.0">one/nio/http/Http..</text>
</g>
<g>
<title>one/nio/http/HttpSession.writeResponse (120 samples, 11.56%)</title><rect x="36.1" y="115.0" width="136.5" height="15" fill="#56e756" rx="2" ry="2"/>
<text x="39.1" y="126.0">one/nio/http/Http..</text>
</g>
<g>
<title>one/nio/http/Response.toBytes (85 samples, 8.19%)</title><rect x="36.1" y="99.0" width="96.7" height="15" fill="#62f362" rx="2" ry="2"/>
<text x="39.1" y="110.0">one/nio/htt..</text>
</g>
<g>
<title>one/nio/util/ByteArrayBuilder.&lt;init&gt; (85 samples, 8.19%)</title><rect x="36.1" y="83.0" width="96.7" height="15" fill="#69fa69" rx="2" ry="2"/>
<text x="39.1" y="94.0">one/nio/uti..</text>
</g>
<g>
<title>byte[] (85 samples, 8.19%)</title><rect x="36.1" y="67.0" width="96.7" height="15" fill="#53c1c1" rx="2" ry="2"/>
<text x="39.1" y="78.0">byte[]</text>
</g>
<g>
<title>one/nio/net/Session.write (35 samples, 3.37%)</title><rect x="132.8" y="99.0" width="39.8" height="15" fill="#5bec5b" rx="2" ry="2"/>
<text x="135.8" y="110.0">one..</text>
</g>
<g>
<title>one.nio.net.Session$ArrayQueueItem (35 samples, 3.37%)</title><rect x="132.8" y="83.0" width="39.8" height="15" fill="#55c3c3" rx="2" ry="2"/>
<text x="135.8" y="94.0">one..</text>
</g>
<g>
<title>one/nio/http/Request.getParameter (51 samples, 4.91%)</title><rect x="172.6" y="131.0" width="57.9" height="15" fill="#63f463" rx="2" ry="2"/>
<text x="175.6" y="142.0">one/ni..</text>
</g>
<g>
<title>java/lang/String.substring (51 samples, 4.91%)</title><rect x="172.6" y="115.0" width="57.9" height="15" fill="#61f261" rx="2" ry="2"/>
<text x="175.6" y="126.0">java/l..</text>
</g>
<g>
<title>java/lang/StringLatin1.newString (51 samples, 4.91%)</title><rect x="172.6" y="99.0" width="57.9" height="15" fill="#64f564" rx="2" ry="2"/>
<text x="175.6" y="110.0">java/l..</text>
</g>
<g>
<title>java.lang.String (21 samples, 2.02%)</title><rect x="172.6" y="83.0" width="23.8" height="15" fill="#61cfcf" rx="2" ry="2"/>
<text x="175.6" y="94.0">j..</text>
</g>
<g>
<title>java/util/Arrays.copyOfRange (30 samples, 2.89%)</title><rect x="196.4" y="83.0" width="34.1" height="15" fill="#51e251" rx="2" ry="2"/>
<text x="199.4" y="94.0">ja..</text>
</g>
<g>
<title>byte[] (30 samples, 2.89%)</title><rect x="196.4" y="67.0" width="34.1" height="15" fill="#60cece" rx="2" ry="2"/>
<text x="199.4" y="78.0">by..</text>
</g>
<g>
<title>ru/mail/polis/service/temnovochka/ServiceImpl.entity (322 samples, 31.02%)</title><rect x="230.5" y="131.0" width="366.1" height="15" fill="#60f160" rx="2" ry="2"/>
<text x="233.5" y="142.0">ru/mail/polis/service/temnovochka/ServiceImpl.entity</text>
</g>
<g>
<title>java/lang/String.getBytes (10 samples, 0.96%)</title><rect x="230.5" y="115.0" width="11.4" height="15" fill="#57e857" rx="2" ry="2"/>
<text x="233.5" y="126.0"></text>
</g>
<g>
<title>java/lang/StringCoding.encode (10 samples, 0.96%)</title><rect x="230.5" y="99.0" width="11.4" height="15" fill="#50e150" rx="2" ry="2"/>
<text x="233.5" y="110.0"></text>
</g>
<g>
<title>java/lang/StringCoding.encodeUTF8 (10 samples, 0.96%)</title><rect x="230.5" y="83.0" width="11.4" height="15" fill="#5aeb5a" rx="2" ry="2"/>
<text x="233.5" y="94.0"></text>
</g>
<g>
<title>java/util/Arrays.copyOf (10 samples, 0.96%)</title><rect x="230.5" y="67.0" width="11.4" height="15" fill="#50e150" rx="2" ry="2"/>
<text x="233.5" y="78.0"></text>
</g>
<g>
<title>byte[] (10 samples, 0.96%)</title><rect x="230.5" y="51.0" width="11.4" height="15" fill="#6bd9d9" rx="2" ry="2"/>
<text x="233.5" y="62.0"></text>
</g>
<g>
<title>java/nio/ByteBuffer.wrap (32 samples, 3.08%)</title><rect x="241.9" y="115.0" width="36.4" height="15" fill="#62f362" rx="2" ry="2"/>
<text x="244.9" y="126.0">jav..</text>
</g>
<g>
<title>java/nio/ByteBuffer.wrap (32 samples, 3.08%)</title><rect x="241.9" y="99.0" width="36.4" height="15" fill="#67f867" rx="2" ry="2"/>
<text x="244.9" y="110.0">jav..</text>
</g>
<g>
<title>java.nio.HeapByteBuffer (32 samples, 3.08%)</title><rect x="241.9" y="83.0" width="36.4" height="15" fill="#6ad8d8" rx="2" ry="2"/>
<text x="244.9" y="94.0">jav..</text>
</g>
<g>
<title>ru/mail/polis/service/temnovochka/ServiceImpl.responseProcessEntity (280 samples, 26.97%)</title><rect x="278.3" y="115.0" width="318.3" height="15" fill="#6bfc6b" rx="2" ry="2"/>
<text x="281.3" y="126.0">ru/mail/polis/service/temnovochka/ServiceIm..</text>
</g>
<g>
<title>java/nio/ByteBuffer.wrap (56 samples, 5.39%)</title><rect x="278.3" y="99.0" width="63.6" height="15" fill="#55e655" rx="2" ry="2"/>
<text x="281.3" y="110.0">java/ni..</text>
</g>
<g>
<title>java/nio/ByteBuffer.wrap (56 samples, 5.39%)</title><rect x="278.3" y="83.0" width="63.6" height="15" fill="#5dee5d" rx="2" ry="2"/>
<text x="281.3" y="94.0">java/ni..</text>
</g>
<g>
<title>java.nio.HeapByteBuffer (56 samples, 5.39%)</title><rect x="278.3" y="67.0" width="63.6" height="15" fill="#5ecccc" rx="2" ry="2"/>
<text x="281.3" y="78.0">java.ni..</text>
</g>
<g>
<title>one.nio.http.Response (9 samples, 0.87%)</title><rect x="341.9" y="99.0" width="10.3" height="15" fill="#67d5d5" rx="2" ry="2"/>
<text x="344.9" y="110.0"></text>
</g>
<g>
<title>one/nio/http/Response.&lt;init&gt; (83 samples, 8.00%)</title><rect x="352.2" y="99.0" width="94.3" height="15" fill="#63f463" rx="2" ry="2"/>
<text x="355.2" y="110.0">one/nio/htt..</text>
</g>
<g>
<title>byte[] (59 samples, 5.68%)</title><rect x="352.2" y="83.0" width="67.0" height="15" fill="#6cdada" rx="2" ry="2"/>
<text x="355.2" y="94.0">byte[]</text>
</g>
<g>
<title>java.lang.String[] (6 samples, 0.58%)</title><rect x="419.2" y="83.0" width="6.9" height="15" fill="#54c2c2" rx="2" ry="2"/>
<text x="422.2" y="94.0"></text>
</g>
<g>
<title>java.lang.String (18 samples, 1.73%)</title><rect x="426.1" y="83.0" width="20.4" height="15" fill="#58c6c6" rx="2" ry="2"/>
<text x="429.1" y="94.0"></text>
</g>
<g>
<title>ru/mail/polis/dao/DAOImpl.upsert (132 samples, 12.72%)</title><rect x="446.5" y="99.0" width="150.1" height="15" fill="#6afb6a" rx="2" ry="2"/>
<text x="449.5" y="110.0">ru/mail/polis/dao/D..</text>
</g>
<g>
<title>ru/mail/polis/dao/ByteArrayUtils.getArrayFromByteBuffer (81 samples, 7.80%)</title><rect x="446.5" y="83.0" width="92.1" height="15" fill="#5aeb5a" rx="2" ry="2"/>
<text x="449.5" y="94.0">ru/mail/pol..</text>
</g>
<g>
<title>byte[] (35 samples, 3.37%)</title><rect x="446.5" y="67.0" width="39.8" height="15" fill="#6ad8d8" rx="2" ry="2"/>
<text x="449.5" y="78.0">byt..</text>
</g>
<g>
<title>java/nio/HeapByteBuffer.duplicate (46 samples, 4.43%)</title><rect x="486.3" y="67.0" width="52.3" height="15" fill="#66f766" rx="2" ry="2"/>
<text x="489.3" y="78.0">java/..</text>
</g>
<g>
<title>java.nio.HeapByteBuffer (46 samples, 4.43%)</title><rect x="486.3" y="51.0" width="52.3" height="15" fill="#5ecccc" rx="2" ry="2"/>
<text x="489.3" y="62.0">java...</text>
</g>
<g>
<title>ru/mail/polis/dao/ByteArrayUtils.packingKey (51 samples, 4.91%)</title><rect x="538.6" y="83.0" width="58.0" height="15" fill="#58e958" rx="2" ry="2"/>
<text x="541.6" y="94.0">ru/mai..</text>
</g>
<g>
<title>ru/mail/polis/dao/ByteArrayUtils.getArrayFromByteBuffer (51 samples, 4.91%)</title><rect x="538.6" y="67.0" width="58.0" height="15" fill="#6cfd6c" rx="2" ry="2"/>
<text x="541.6" y="78.0">ru/mai..</text>
</g>
<g>
<title>byte[] (12 samples, 1.16%)</title><rect x="538.6" y="51.0" width="13.7" height="15" fill="#53c1c1" rx="2" ry="2"/>
<text x="541.6" y="62.0"></text>
</g>
<g>
<title>java/nio/HeapByteBuffer.duplicate (39 samples, 3.76%)</title><rect x="552.3" y="51.0" width="44.3" height="15" fill="#69fa69" rx="2" ry="2"/>
<text x="555.3" y="62.0">java..</text>
</g>
<g>
<title>java.nio.HeapByteBuffer (39 samples, 3.76%)</title><rect x="552.3" y="35.0" width="44.3" height="15" fill="#62d0d0" rx="2" ry="2"/>
<text x="555.3" y="46.0">java..</text>
</g>
<g>
<title>one/nio/http/Request.getPath (39 samples, 3.76%)</title><rect x="596.6" y="147.0" width="44.3" height="15" fill="#65f665" rx="2" ry="2"/>
<text x="599.6" y="158.0">one/..</text>
</g>
<g>
<title>java/lang/String.substring (39 samples, 3.76%)</title><rect x="596.6" y="131.0" width="44.3" height="15" fill="#6bfc6b" rx="2" ry="2"/>
<text x="599.6" y="142.0">java..</text>
</g>
<g>
<title>java/lang/StringLatin1.newString (39 samples, 3.76%)</title><rect x="596.6" y="115.0" width="44.3" height="15" fill="#55e655" rx="2" ry="2"/>
<text x="599.6" y="126.0">java..</text>
</g>
<g>
<title>java.lang.String (4 samples, 0.39%)</title><rect x="596.6" y="99.0" width="4.5" height="15" fill="#58c6c6" rx="2" ry="2"/>
<text x="599.6" y="110.0"></text>
</g>
<g>
<title>java/util/Arrays.copyOfRange (35 samples, 3.37%)</title><rect x="601.1" y="99.0" width="39.8" height="15" fill="#55e655" rx="2" ry="2"/>
<text x="604.1" y="110.0">jav..</text>
</g>
<g>
<title>byte[] (35 samples, 3.37%)</title><rect x="601.1" y="83.0" width="39.8" height="15" fill="#56c4c4" rx="2" ry="2"/>
<text x="604.1" y="94.0">byt..</text>
</g>
<g>
<title>one/nio/http/HttpSession.parseRequest (219 samples, 21.10%)</title><rect x="640.9" y="179.0" width="249.0" height="15" fill="#62f362" rx="2" ry="2"/>
<text x="643.9" y="190.0">one/nio/http/HttpSession.parseReq..</text>
</g>
<g>
<title>one.nio.http.Request (34 samples, 3.28%)</title><rect x="640.9" y="163.0" width="38.7" height="15" fill="#55c3c3" rx="2" ry="2"/>
<text x="643.9" y="174.0">one..</text>
</g>
<g>
<title>one/nio/http/Request.&lt;init&gt; (77 samples, 7.42%)</title><rect x="679.6" y="163.0" width="87.5" height="15" fill="#53e453" rx="2" ry="2"/>
<text x="682.6" y="174.0">one/nio/ht..</text>
</g>
<g>
<title>java.lang.String[] (77 samples, 7.42%)</title><rect x="679.6" y="147.0" width="87.5" height="15" fill="#56c4c4" rx="2" ry="2"/>
<text x="682.6" y="158.0">java.lang...</text>
</g>
<g>
<title>one/nio/util/Utf8.read (108 samples, 10.40%)</title><rect x="767.1" y="163.0" width="122.8" height="15" fill="#6cfd6c" rx="2" ry="2"/>
<text x="770.1" y="174.0">one/nio/util/Ut..</text>
</g>
<g>
<title>one/nio/util/Utf8.read (108 samples, 10.40%)</title><rect x="767.1" y="147.0" width="122.8" height="15" fill="#50e150" rx="2" ry="2"/>
<text x="770.1" y="158.0">one/nio/util/Ut..</text>
</g>
<g>
<title>char[] (67 samples, 6.45%)</title><rect x="767.1" y="131.0" width="76.2" height="15" fill="#54c2c2" rx="2" ry="2"/>
<text x="770.1" y="142.0">char[]</text>
</g>
<g>
<title>java.lang.String (5 samples, 0.48%)</title><rect x="843.3" y="131.0" width="5.7" height="15" fill="#53c1c1" rx="2" ry="2"/>
<text x="846.3" y="142.0"></text>
</g>
<g>
<title>java/lang/String.&lt;init&gt; (36 samples, 3.47%)</title><rect x="849.0" y="131.0" width="40.9" height="15" fill="#5dee5d" rx="2" ry="2"/>
<text x="852.0" y="142.0">jav..</text>
</g>
<g>
<title>java/lang/String.&lt;init&gt; (36 samples, 3.47%)</title><rect x="849.0" y="115.0" width="40.9" height="15" fill="#63f463" rx="2" ry="2"/>
<text x="852.0" y="126.0">jav..</text>
</g>
<g>
<title>java/lang/StringUTF16.compress (36 samples, 3.47%)</title><rect x="849.0" y="99.0" width="40.9" height="15" fill="#6bfc6b" rx="2" ry="2"/>
<text x="852.0" y="110.0">jav..</text>
</g>
<g>
<title>byte[] (36 samples, 3.47%)</title><rect x="849.0" y="83.0" width="40.9" height="15" fill="#53c1c1" rx="2" ry="2"/>
<text x="852.0" y="94.0">byt..</text>
</g>
<g>
<title>one/nio/http/HttpSession.startParsingRequestBody (16 samples, 1.54%)</title><rect x="889.9" y="179.0" width="18.2" height="15" fill="#62f362" rx="2" ry="2"/>
<text x="892.9" y="190.0"></text>
</g>
<g>
<title>byte[] (16 samples, 1.54%)</title><rect x="889.9" y="163.0" width="18.2" height="15" fill="#52c0c0" rx="2" ry="2"/>
<text x="892.9" y="174.0"></text>
</g>
<g>
<title>one/nio/http/Request.getHeader (42 samples, 4.05%)</title><rect x="908.1" y="179.0" width="47.7" height="15" fill="#5bec5b" rx="2" ry="2"/>
<text x="911.1" y="190.0">one/..</text>
</g>
<g>
<title>java/lang/String.substring (42 samples, 4.05%)</title><rect x="908.1" y="163.0" width="47.7" height="15" fill="#5eef5e" rx="2" ry="2"/>
<text x="911.1" y="174.0">java..</text>
</g>
<g>
<title>java/lang/StringLatin1.newString (42 samples, 4.05%)</title><rect x="908.1" y="147.0" width="47.7" height="15" fill="#5dee5d" rx="2" ry="2"/>
<text x="911.1" y="158.0">java..</text>
</g>
<g>
<title>java.lang.String (34 samples, 3.28%)</title><rect x="908.1" y="131.0" width="38.6" height="15" fill="#58c6c6" rx="2" ry="2"/>
<text x="911.1" y="142.0">jav..</text>
</g>
<g>
<title>java/util/Arrays.copyOfRange (8 samples, 0.77%)</title><rect x="946.7" y="131.0" width="9.1" height="15" fill="#57e857" rx="2" ry="2"/>
<text x="949.7" y="142.0"></text>
</g>
<g>
<title>byte[] (8 samples, 0.77%)</title><rect x="946.7" y="115.0" width="9.1" height="15" fill="#6bd9d9" rx="2" ry="2"/>
<text x="949.7" y="126.0"></text>
</g>
<g>
<title>one/nio/util/Utf8.read (206 samples, 19.85%)</title><rect x="955.8" y="179.0" width="234.2" height="15" fill="#60f160" rx="2" ry="2"/>
<text x="958.8" y="190.0">one/nio/util/Utf8.read</text>
</g>
<g>
<title>one/nio/util/Utf8.read (206 samples, 19.85%)</title><rect x="955.8" y="163.0" width="234.2" height="15" fill="#55e655" rx="2" ry="2"/>
<text x="958.8" y="174.0">one/nio/util/Utf8.read</text>
</g>
<g>
<title>char[] (93 samples, 8.96%)</title><rect x="955.8" y="147.0" width="105.7" height="15" fill="#51bfbf" rx="2" ry="2"/>
<text x="958.8" y="158.0">char[]</text>
</g>
<g>
<title>java.lang.String (55 samples, 5.30%)</title><rect x="1061.5" y="147.0" width="62.6" height="15" fill="#5ccaca" rx="2" ry="2"/>
<text x="1064.5" y="158.0">java.l..</text>
</g>
<g>
<title>java/lang/String.&lt;init&gt; (58 samples, 5.59%)</title><rect x="1124.1" y="147.0" width="65.9" height="15" fill="#68f968" rx="2" ry="2"/>
<text x="1127.1" y="158.0">java/la..</text>
</g>
<g>
<title>java/lang/String.&lt;init&gt; (58 samples, 5.59%)</title><rect x="1124.1" y="131.0" width="65.9" height="15" fill="#66f766" rx="2" ry="2"/>
<text x="1127.1" y="142.0">java/la..</text>
</g>
<g>
<title>java/lang/StringUTF16.compress (58 samples, 5.59%)</title><rect x="1124.1" y="115.0" width="65.9" height="15" fill="#5aeb5a" rx="2" ry="2"/>
<text x="1127.1" y="126.0">java/la..</text>
</g>
<g>
<title>byte[] (58 samples, 5.59%)</title><rect x="1124.1" y="99.0" width="65.9" height="15" fill="#6ddbdb" rx="2" ry="2"/>
<text x="1127.1" y="110.0">byte[]</text>
</g>
</g>
</svg>
