<?xml version="1.0" standalone="no"?>
<!DOCTYPE svg PUBLIC "-//W3C//DTD SVG 1.1//EN" "http://www.w3.org/Graphics/SVG/1.1/DTD/svg11.dtd">
<svg version="1.1" width="1200" height="342" onload="init(evt)" viewBox="0 0 1200 342" xmlns="http://www.w3.org/2000/svg" xmlns:xlink="http://www.w3.org/1999/xlink">
<style type="text/css">
	text { font-family:Verdana; font-size:12px; fill:rgb(0,0,0); }
	#search { opacity:0.1; cursor:pointer; }
	#search:hover, #search.show { opacity:1; }
	#subtitle { text-anchor:middle; font-color:rgb(160,160,160); }
	#title { text-anchor:middle; font-size:17px}
	#unzoom { cursor:pointer; }
	#frames > *:hover { stroke:black; stroke-width:0.5; cursor:pointer; }
	.hide { display:none; }
	.parent { opacity:0.5; }
</style>
<script type="text/ecmascript">
<![CDATA[
	"use strict";
	var details, searchbtn, unzoombtn, matchedtxt, svg, searching;
	function init(evt) {
		details = document.getElementById("details").firstChild;
		searchbtn = document.getElementById("search");
		unzoombtn = document.getElementById("unzoom");
		matchedtxt = document.getElementById("matched");
		svg = document.getElementsByTagName("svg")[0];
		searching = 0;
	}

	window.addEventListener("click", function(e) {
		var target = find_group(e.target);
		if (target) {
			if (target.nodeName == "a") {
				if (e.ctrlKey === false) return;
				e.preventDefault();
			}
			if (target.classList.contains("parent")) unzoom();
			zoom(target);
		}
		else if (e.target.id == "unzoom") unzoom();
		else if (e.target.id == "search") search_prompt();
	}, false)

	// mouse-over for info
	// show
	window.addEventListener("mouseover", function(e) {
		var target = find_group(e.target);
		if (target) details.nodeValue = "Function: " + g_to_text(target);
	}, false)

	// clear
	window.addEventListener("mouseout", function(e) {
		var target = find_group(e.target);
		if (target) details.nodeValue = ' ';
	}, false)

	// ctrl-F for search
	window.addEventListener("keydown",function (e) {
		if (e.keyCode === 114 || (e.ctrlKey && e.keyCode === 70)) {
			e.preventDefault();
			search_prompt();
		}
	}, false)

	// functions
	function find_child(node, selector) {
		var children = node.querySelectorAll(selector);
		if (children.length) return children[0];
		return;
	}
	function find_group(node) {
		var parent = node.parentElement;
		if (!parent) return;
		if (parent.id == "frames") return node;
		return find_group(parent);
	}
	function orig_save(e, attr, val) {
		if (e.attributes["_orig_" + attr] != undefined) return;
		if (e.attributes[attr] == undefined) return;
		if (val == undefined) val = e.attributes[attr].value;
		e.setAttribute("_orig_" + attr, val);
	}
	function orig_load(e, attr) {
		if (e.attributes["_orig_"+attr] == undefined) return;
		e.attributes[attr].value = e.attributes["_orig_" + attr].value;
		e.removeAttribute("_orig_"+attr);
	}
	function g_to_text(e) {
		var text = find_child(e, "title").firstChild.nodeValue;
		return (text)
	}
	function g_to_func(e) {
		var func = g_to_text(e);
		// if there's any manipulation we want to do to the function
		// name before it's searched, do it here before returning.
		return (func);
	}
	function update_text(e) {
		var r = find_child(e, "rect");
		var t = find_child(e, "text");
		var w = parseFloat(r.attributes.width.value) -3;
		var txt = find_child(e, "title").textContent.replace(/\([^(]*\)$/,"");
		t.attributes.x.value = parseFloat(r.attributes.x.value) + 3;

		// Smaller than this size won't fit anything
		if (w < 2 * 12 * 0.59) {
			t.textContent = "";
			return;
		}

		t.textContent = txt;
		// Fit in full text width
		if (/^ *$/.test(txt) || t.getSubStringLength(0, txt.length) < w)
			return;

		for (var x = txt.length - 2; x > 0; x--) {
			if (t.getSubStringLength(0, x + 2) <= w) {
				t.textContent = txt.substring(0, x) + "..";
				return;
			}
		}
		t.textContent = "";
	}

	// zoom
	function zoom_reset(e) {
		if (e.attributes != undefined) {
			orig_load(e, "x");
			orig_load(e, "width");
		}
		if (e.childNodes == undefined) return;
		for (var i = 0, c = e.childNodes; i < c.length; i++) {
			zoom_reset(c[i]);
		}
	}
	function zoom_child(e, x, ratio) {
		if (e.attributes != undefined) {
			if (e.attributes.x != undefined) {
				orig_save(e, "x");
				e.attributes.x.value = (parseFloat(e.attributes.x.value) - x - 10) * ratio + 10;
				if (e.tagName == "text")
					e.attributes.x.value = find_child(e.parentNode, "rect[x]").attributes.x.value + 3;
			}
			if (e.attributes.width != undefined) {
				orig_save(e, "width");
				e.attributes.width.value = parseFloat(e.attributes.width.value) * ratio;
			}
		}

		if (e.childNodes == undefined) return;
		for (var i = 0, c = e.childNodes; i < c.length; i++) {
			zoom_child(c[i], x - 10, ratio);
		}
	}
	function zoom_parent(e) {
		if (e.attributes) {
			if (e.attributes.x != undefined) {
				orig_save(e, "x");
				e.attributes.x.value = 10;
			}
			if (e.attributes.width != undefined) {
				orig_save(e, "width");
				e.attributes.width.value = parseInt(svg.width.baseVal.value) - (10 * 2);
			}
		}
		if (e.childNodes == undefined) return;
		for (var i = 0, c = e.childNodes; i < c.length; i++) {
			zoom_parent(c[i]);
		}
	}
	function zoom(node) {
		var attr = find_child(node, "rect").attributes;
		var width = parseFloat(attr.width.value);
		var xmin = parseFloat(attr.x.value);
		var xmax = parseFloat(xmin + width);
		var ymin = parseFloat(attr.y.value);
		var ratio = (svg.width.baseVal.value - 2 * 10) / width;

		// XXX: Workaround for JavaScript float issues (fix me)
		var fudge = 0.0001;

		unzoombtn.classList.remove("hide");

		var el = document.getElementById("frames").children;
		for (var i = 0; i < el.length; i++) {
			var e = el[i];
			var a = find_child(e, "rect").attributes;
			var ex = parseFloat(a.x.value);
			var ew = parseFloat(a.width.value);
			var upstack;
			// Is it an ancestor
			if (0 == 0) {
				upstack = parseFloat(a.y.value) > ymin;
			} else {
				upstack = parseFloat(a.y.value) < ymin;
			}
			if (upstack) {
				// Direct ancestor
				if (ex <= xmin && (ex+ew+fudge) >= xmax) {
					e.classList.add("parent");
					zoom_parent(e);
					update_text(e);
				}
				// not in current path
				else
					e.classList.add("hide");
			}
			// Children maybe
			else {
				// no common path
				if (ex < xmin || ex + fudge >= xmax) {
					e.classList.add("hide");
				}
				else {
					zoom_child(e, xmin, ratio);
					update_text(e);
				}
			}
		}
	}
	function unzoom() {
		unzoombtn.classList.add("hide");
		var el = document.getElementById("frames").children;
		for(var i = 0; i < el.length; i++) {
			el[i].classList.remove("parent");
			el[i].classList.remove("hide");
			zoom_reset(el[i]);
			update_text(el[i]);
		}
	}

	// search
	function reset_search() {
		var el = document.querySelectorAll("#frames rect");
		for (var i = 0; i < el.length; i++) {
			orig_load(el[i], "fill")
		}
	}
	function search_prompt() {
		if (!searching) {
			var term = prompt("Enter a search term (regexp " +
			    "allowed, eg: ^ext4_)", "");
			if (term != null) {
				search(term)
			}
		} else {
			reset_search();
			searching = 0;
			searchbtn.classList.remove("show");
			searchbtn.firstChild.nodeValue = "Search"
			matchedtxt.classList.add("hide");
			matchedtxt.firstChild.nodeValue = ""
		}
	}
	function search(term) {
		var re = new RegExp(term);
		var el = document.getElementById("frames").children;
		var matches = new Object();
		var maxwidth = 0;
		for (var i = 0; i < el.length; i++) {
			var e = el[i];
			var func = g_to_func(e);
			var rect = find_child(e, "rect");
			if (func == null || rect == null)
				continue;

			// Save max width. Only works as we have a root frame
			var w = parseFloat(rect.attributes.width.value);
			if (w > maxwidth)
				maxwidth = w;

			if (func.match(re)) {
				// highlight
				var x = parseFloat(rect.attributes.x.value);
				orig_save(rect, "fill");
				rect.attributes.fill.value = "rgb(230,0,230)";

				// remember matches
				if (matches[x] == undefined) {
					matches[x] = w;
				} else {
					if (w > matches[x]) {
						// overwrite with parent
						matches[x] = w;
					}
				}
				searching = 1;
			}
		}
		if (!searching)
			return;

		searchbtn.classList.add("show");
		searchbtn.firstChild.nodeValue = "Reset Search";

		// calculate percent matched, excluding vertical overlap
		var count = 0;
		var lastx = -1;
		var lastw = 0;
		var keys = Array();
		for (k in matches) {
			if (matches.hasOwnProperty(k))
				keys.push(k);
		}
		// sort the matched frames by their x location
		// ascending, then width descending
		keys.sort(function(a, b){
			return a - b;
		});
		// Step through frames saving only the biggest bottom-up frames
		// thanks to the sort order. This relies on the tree property
		// where children are always smaller than their parents.
		var fudge = 0.0001;	// JavaScript floating point
		for (var k in keys) {
			var x = parseFloat(keys[k]);
			var w = matches[keys[k]];
			if (x >= lastx + lastw - fudge) {
				count += w;
				lastx = x;
				lastw = w;
			}
		}
		// display matched percent
		matchedtxt.classList.remove("hide");
		var pct = 100 * count / maxwidth;
		if (pct != 100) pct = pct.toFixed(1)
		matchedtxt.firstChild.nodeValue = "Matched: " + pct + "%";
	}
]]>
</script>
<rect x="0" y="0" width="100%" height="100%" fill="rgb(240,240,220)"/>
<text id="title" x="600" y="24">Flame Graph</text>
<text id="details" x="10" y="325"> </text>
<text id="unzoom" x="10" y="24" class="hide">Reset Zoom</text>
<text id="search" x="1090" y="24">Search</text>
<text id="matched" x="1090" y="325"> </text>
<g id="frames">
<g>
<title>all (2,304 samples, 100.00%)</title><rect x="10.0" y="291.0" width="1180.0" height="15" fill="#fa7b7b" rx="2" ry="2"/>
<text x="13.0" y="302.0">all</text>
</g>
<g>
<title>[not_walkable] (1 samples, 0.04%)</title><rect x="10.0" y="275.0" width="0.5" height="15" fill="#ec6969" rx="2" ry="2"/>
<text x="13.0" y="286.0"></text>
</g>
<g>
<title>java.lang.String (1 samples, 0.04%)</title><rect x="10.0" y="259.0" width="0.5" height="15" fill="#67d5d5" rx="2" ry="2"/>
<text x="13.0" y="270.0"></text>
</g>
<g>
<title>java/lang/Thread.run (1,579 samples, 68.53%)</title><rect x="10.5" y="275.0" width="808.7" height="15" fill="#67f867" rx="2" ry="2"/>
<text x="13.5" y="286.0">java/lang/Thread.run</text>
</g>
<g>
<title>java/util/concurrent/ThreadPoolExecutor$Worker.run (1,579 samples, 68.53%)</title><rect x="10.5" y="259.0" width="808.7" height="15" fill="#6bfc6b" rx="2" ry="2"/>
<text x="13.5" y="270.0">java/util/concurrent/ThreadPoolExecutor$Worker.run</text>
</g>
<g>
<title>java/util/concurrent/ThreadPoolExecutor.runWorker (1,579 samples, 68.53%)</title><rect x="10.5" y="243.0" width="808.7" height="15" fill="#55e655" rx="2" ry="2"/>
<text x="13.5" y="254.0">java/util/concurrent/ThreadPoolExecutor.runWorker</text>
</g>
<g>
<title>java/util/concurrent/ThreadPoolExecutor.getTask (55 samples, 2.39%)</title><rect x="10.5" y="227.0" width="28.2" height="15" fill="#5aeb5a" rx="2" ry="2"/>
<text x="13.5" y="238.0">ja..</text>
</g>
<g>
<title>java/util/concurrent/SynchronousQueue.poll (55 samples, 2.39%)</title><rect x="10.5" y="211.0" width="28.2" height="15" fill="#67f867" rx="2" ry="2"/>
<text x="13.5" y="222.0">ja..</text>
</g>
<g>
<title>java/util/concurrent/SynchronousQueue$TransferStack.transfer (55 samples, 2.39%)</title><rect x="10.5" y="195.0" width="28.2" height="15" fill="#58e958" rx="2" ry="2"/>
<text x="13.5" y="206.0">ja..</text>
</g>
<g>
<title>java/util/concurrent/SynchronousQueue$TransferStack.snode (55 samples, 2.39%)</title><rect x="10.5" y="179.0" width="28.2" height="15" fill="#60f160" rx="2" ry="2"/>
<text x="13.5" y="190.0">ja..</text>
</g>
<g>
<title>java.util.concurrent.SynchronousQueue$TransferStack$SNode (55 samples, 2.39%)</title><rect x="10.5" y="163.0" width="28.2" height="15" fill="#5ecccc" rx="2" ry="2"/>
<text x="13.5" y="174.0">ja..</text>
</g>
<g>
<title>ru/mail/polis/service/temnovochka/ServiceImpl$$Lambda$60/820214818.run (1,524 samples, 66.15%)</title><rect x="38.7" y="227.0" width="780.5" height="15" fill="#62f362" rx="2" ry="2"/>
<text x="41.7" y="238.0">ru/mail/polis/service/temnovochka/ServiceImpl$$Lambda$60/820214818.run</text>
</g>
<g>
<title>ru/mail/polis/service/temnovochka/ServiceImpl.lambda$entity$0 (1,524 samples, 66.15%)</title><rect x="38.7" y="211.0" width="780.5" height="15" fill="#5aeb5a" rx="2" ry="2"/>
<text x="41.7" y="222.0">ru/mail/polis/service/temnovochka/ServiceImpl.lambda$entity$0</text>
</g>
<g>
<title>one/nio/http/HttpSession.sendResponse (210 samples, 9.11%)</title><rect x="38.7" y="195.0" width="107.5" height="15" fill="#5ff05f" rx="2" ry="2"/>
<text x="41.7" y="206.0">one/nio/http/..</text>
</g>
<g>
<title>one/nio/http/HttpSession.writeResponse (210 samples, 9.11%)</title><rect x="38.7" y="179.0" width="107.5" height="15" fill="#6cfd6c" rx="2" ry="2"/>
<text x="41.7" y="190.0">one/nio/http/..</text>
</g>
<g>
<title>one/nio/http/Response.toBytes (170 samples, 7.38%)</title><rect x="38.7" y="163.0" width="87.0" height="15" fill="#6bfc6b" rx="2" ry="2"/>
<text x="41.7" y="174.0">one/nio/ht..</text>
</g>
<g>
<title>one/nio/util/ByteArrayBuilder.&lt;init&gt; (170 samples, 7.38%)</title><rect x="38.7" y="147.0" width="87.0" height="15" fill="#63f463" rx="2" ry="2"/>
<text x="41.7" y="158.0">one/nio/ut..</text>
</g>
<g>
<title>byte[] (170 samples, 7.38%)</title><rect x="38.7" y="131.0" width="87.0" height="15" fill="#65d3d3" rx="2" ry="2"/>
<text x="41.7" y="142.0">byte[]</text>
</g>
<g>
<title>one/nio/net/Session.write (40 samples, 1.74%)</title><rect x="125.7" y="163.0" width="20.5" height="15" fill="#54e554" rx="2" ry="2"/>
<text x="128.7" y="174.0"></text>
</g>
<g>
<title>one.nio.net.Session$ArrayQueueItem (40 samples, 1.74%)</title><rect x="125.7" y="147.0" width="20.5" height="15" fill="#62d0d0" rx="2" ry="2"/>
<text x="128.7" y="158.0"></text>
</g>
<g>
<title>ru/mail/polis/service/temnovochka/ServiceImpl.responseProcessEntity (1,314 samples, 57.03%)</title><rect x="146.2" y="195.0" width="673.0" height="15" fill="#50e150" rx="2" ry="2"/>
<text x="149.2" y="206.0">ru/mail/polis/service/temnovochka/ServiceImpl.responseProcessEntity</text>
</g>
<g>
<title>one.nio.http.Response (14 samples, 0.61%)</title><rect x="146.2" y="179.0" width="7.2" height="15" fill="#57c5c5" rx="2" ry="2"/>
<text x="149.2" y="190.0"></text>
</g>
<g>
<title>one/nio/http/Response.&lt;init&gt; (209 samples, 9.07%)</title><rect x="153.4" y="179.0" width="107.0" height="15" fill="#54e554" rx="2" ry="2"/>
<text x="156.4" y="190.0">one/nio/http/..</text>
</g>
<g>
<title>byte[] (112 samples, 4.86%)</title><rect x="153.4" y="163.0" width="57.4" height="15" fill="#68d6d6" rx="2" ry="2"/>
<text x="156.4" y="174.0">byte[]</text>
</g>
<g>
<title>java.lang.String[] (58 samples, 2.52%)</title><rect x="210.8" y="163.0" width="29.7" height="15" fill="#54c2c2" rx="2" ry="2"/>
<text x="213.8" y="174.0">ja..</text>
</g>
<g>
<title>java.lang.String (39 samples, 1.69%)</title><rect x="240.5" y="163.0" width="19.9" height="15" fill="#5ccaca" rx="2" ry="2"/>
<text x="243.5" y="174.0"></text>
</g>
<g>
<title>ru/mail/polis/dao/DAOImpl.get (1,091 samples, 47.35%)</title><rect x="260.4" y="179.0" width="558.8" height="15" fill="#53e453" rx="2" ry="2"/>
<text x="263.4" y="190.0">ru/mail/polis/dao/DAOImpl.get</text>
</g>
<g>
<title>java.util.NoSuchElementException (37 samples, 1.61%)</title><rect x="260.4" y="163.0" width="19.0" height="15" fill="#53c1c1" rx="2" ry="2"/>
<text x="263.4" y="174.0"></text>
</g>
<g>
<title>java/util/NoSuchElementException.&lt;init&gt; (1,013 samples, 43.97%)</title><rect x="279.4" y="163.0" width="518.8" height="15" fill="#6dfe6d" rx="2" ry="2"/>
<text x="282.4" y="174.0">java/util/NoSuchElementException.&lt;init&gt;</text>
</g>
<g>
<title>java/lang/RuntimeException.&lt;init&gt; (1,013 samples, 43.97%)</title><rect x="279.4" y="147.0" width="518.8" height="15" fill="#56e756" rx="2" ry="2"/>
<text x="282.4" y="158.0">java/lang/RuntimeException.&lt;init&gt;</text>
</g>
<g>
<title>java/lang/Exception.&lt;init&gt; (1,013 samples, 43.97%)</title><rect x="279.4" y="131.0" width="518.8" height="15" fill="#5ff05f" rx="2" ry="2"/>
<text x="282.4" y="142.0">java/lang/Exception.&lt;init&gt;</text>
</g>
<g>
<title>java/lang/Throwable.&lt;init&gt; (1,013 samples, 43.97%)</title><rect x="279.4" y="115.0" width="518.8" height="15" fill="#69fa69" rx="2" ry="2"/>
<text x="282.4" y="126.0">java/lang/Throwable.&lt;init&gt;</text>
</g>
<g>
<title>java/lang/Throwable.fillInStackTrace (1,013 samples, 43.97%)</title><rect x="279.4" y="99.0" width="518.8" height="15" fill="#62f362" rx="2" ry="2"/>
<text x="282.4" y="110.0">java/lang/Throwable.fillInStackTrace</text>
</g>
<g>
<title>java/lang/Throwable.fillInStackTrace (1,013 samples, 43.97%)</title><rect x="279.4" y="83.0" width="518.8" height="15" fill="#58e958" rx="2" ry="2"/>
<text x="282.4" y="94.0">java/lang/Throwable.fillInStackTrace</text>
</g>
<g>
<title>int[] (260 samples, 11.28%)</title><rect x="279.4" y="67.0" width="133.2" height="15" fill="#63d1d1" rx="2" ry="2"/>
<text x="282.4" y="78.0">int[]</text>
</g>
<g>
<title>java.lang.Object[] (249 samples, 10.81%)</title><rect x="412.6" y="67.0" width="127.5" height="15" fill="#5fcdcd" rx="2" ry="2"/>
<text x="415.6" y="78.0">java.lang.Object[]</text>
</g>
<g>
<title>long[] (414 samples, 17.97%)</title><rect x="540.1" y="67.0" width="212.0" height="15" fill="#5ecccc" rx="2" ry="2"/>
<text x="543.1" y="78.0">long[]</text>
</g>
<g>
<title>short[] (90 samples, 3.91%)</title><rect x="752.1" y="67.0" width="46.1" height="15" fill="#6ddbdb" rx="2" ry="2"/>
<text x="755.1" y="78.0">shor..</text>
</g>
<g>
<title>ru/mail/polis/dao/ByteArrayUtils.packingKey (41 samples, 1.78%)</title><rect x="798.2" y="163.0" width="21.0" height="15" fill="#58e958" rx="2" ry="2"/>
<text x="801.2" y="174.0"></text>
</g>
<g>
<title>ru/mail/polis/dao/ByteArrayUtils.getArrayFromByteBuffer (41 samples, 1.78%)</title><rect x="798.2" y="147.0" width="21.0" height="15" fill="#67f867" rx="2" ry="2"/>
<text x="801.2" y="158.0"></text>
</g>
<g>
<title>byte[] (41 samples, 1.78%)</title><rect x="798.2" y="131.0" width="21.0" height="15" fill="#5fcdcd" rx="2" ry="2"/>
<text x="801.2" y="142.0"></text>
</g>
<g>
<title>one/nio/server/SelectorThread.run (724 samples, 31.42%)</title><rect x="819.2" y="275.0" width="370.8" height="15" fill="#67f867" rx="2" ry="2"/>
<text x="822.2" y="286.0">one/nio/server/SelectorThread.run</text>
</g>
<g>
<title>one/nio/net/NativeSelector.select (44 samples, 1.91%)</title><rect x="819.2" y="259.0" width="22.5" height="15" fill="#5ced5c" rx="2" ry="2"/>
<text x="822.2" y="270.0">o..</text>
</g>
<g>
<title>one.nio.net.NativeSelector$2 (44 samples, 1.91%)</title><rect x="819.2" y="243.0" width="22.5" height="15" fill="#6ad8d8" rx="2" ry="2"/>
<text x="822.2" y="254.0">o..</text>
</g>
<g>
<title>one/nio/net/Session.process (680 samples, 29.51%)</title><rect x="841.7" y="259.0" width="348.3" height="15" fill="#58e958" rx="2" ry="2"/>
<text x="844.7" y="270.0">one/nio/net/Session.process</text>
</g>
<g>
<title>one/nio/http/HttpSession.processRead (680 samples, 29.51%)</title><rect x="841.7" y="243.0" width="348.3" height="15" fill="#5aeb5a" rx="2" ry="2"/>
<text x="844.7" y="254.0">one/nio/http/HttpSession.processRead</text>
</g>
<g>
<title>one/nio/http/HttpSession.processHttpBuffer (680 samples, 29.51%)</title><rect x="841.7" y="227.0" width="348.3" height="15" fill="#68f968" rx="2" ry="2"/>
<text x="844.7" y="238.0">one/nio/http/HttpSession.processHttpBuffer</text>
</g>
<g>
<title>one/nio/http/HttpSession.handleParsedRequest (265 samples, 11.50%)</title><rect x="841.7" y="211.0" width="135.8" height="15" fill="#6bfc6b" rx="2" ry="2"/>
<text x="844.7" y="222.0">one/nio/http/Http..</text>
</g>
<g>
<title>one/nio/http/HttpServer.handleRequest (265 samples, 11.50%)</title><rect x="841.7" y="195.0" width="135.8" height="15" fill="#52e352" rx="2" ry="2"/>
<text x="844.7" y="206.0">one/nio/http/Http..</text>
</g>
<g>
<title>RequestHandler1_entity.handleRequest (226 samples, 9.81%)</title><rect x="841.7" y="179.0" width="115.8" height="15" fill="#6cfd6c" rx="2" ry="2"/>
<text x="844.7" y="190.0">RequestHandler..</text>
</g>
<g>
<title>one/nio/http/Request.getParameter (55 samples, 2.39%)</title><rect x="841.7" y="163.0" width="28.2" height="15" fill="#5ff05f" rx="2" ry="2"/>
<text x="844.7" y="174.0">on..</text>
</g>
<g>
<title>java/lang/String.substring (55 samples, 2.39%)</title><rect x="841.7" y="147.0" width="28.2" height="15" fill="#52e352" rx="2" ry="2"/>
<text x="844.7" y="158.0">ja..</text>
</g>
<g>
<title>java/lang/StringLatin1.newString (55 samples, 2.39%)</title><rect x="841.7" y="131.0" width="28.2" height="15" fill="#55e655" rx="2" ry="2"/>
<text x="844.7" y="142.0">ja..</text>
</g>
<g>
<title>java.lang.String (32 samples, 1.39%)</title><rect x="841.7" y="115.0" width="16.4" height="15" fill="#63d1d1" rx="2" ry="2"/>
<text x="844.7" y="126.0"></text>
</g>
<g>
<title>java/util/Arrays.copyOfRange (23 samples, 1.00%)</title><rect x="858.1" y="115.0" width="11.8" height="15" fill="#6afb6a" rx="2" ry="2"/>
<text x="861.1" y="126.0"></text>
</g>
<g>
<title>byte[] (23 samples, 1.00%)</title><rect x="858.1" y="99.0" width="11.8" height="15" fill="#5ac8c8" rx="2" ry="2"/>
<text x="861.1" y="110.0"></text>
</g>
<g>
<title>ru/mail/polis/service/temnovochka/ServiceImpl.entity (171 samples, 7.42%)</title><rect x="869.9" y="163.0" width="87.6" height="15" fill="#51e251" rx="2" ry="2"/>
<text x="872.9" y="174.0">ru/mail/po..</text>
</g>
<g>
<title>java/lang/String.getBytes (26 samples, 1.13%)</title><rect x="869.9" y="147.0" width="13.3" height="15" fill="#50e150" rx="2" ry="2"/>
<text x="872.9" y="158.0"></text>
</g>
<g>
<title>java/lang/StringCoding.encode (26 samples, 1.13%)</title><rect x="869.9" y="131.0" width="13.3" height="15" fill="#5dee5d" rx="2" ry="2"/>
<text x="872.9" y="142.0"></text>
</g>
<g>
<title>java/lang/StringCoding.encodeUTF8 (26 samples, 1.13%)</title><rect x="869.9" y="115.0" width="13.3" height="15" fill="#51e251" rx="2" ry="2"/>
<text x="872.9" y="126.0"></text>
</g>
<g>
<title>java/util/Arrays.copyOf (26 samples, 1.13%)</title><rect x="869.9" y="99.0" width="13.3" height="15" fill="#57e857" rx="2" ry="2"/>
<text x="872.9" y="110.0"></text>
</g>
<g>
<title>byte[] (26 samples, 1.13%)</title><rect x="869.9" y="83.0" width="13.3" height="15" fill="#6ddbdb" rx="2" ry="2"/>
<text x="872.9" y="94.0"></text>
</g>
<g>
<title>java/lang/invoke/Invokers$Holder.linkToTargetMethod (37 samples, 1.61%)</title><rect x="883.2" y="147.0" width="19.0" height="15" fill="#6bfc6b" rx="2" ry="2"/>
<text x="886.2" y="158.0"></text>
</g>
<g>
<title>java/lang/invoke/DirectMethodHandle$Holder.invokeStatic (37 samples, 1.61%)</title><rect x="883.2" y="131.0" width="19.0" height="15" fill="#69fa69" rx="2" ry="2"/>
<text x="886.2" y="142.0"></text>
</g>
<g>
<title>ru/mail/polis/service/temnovochka/ServiceImpl$$Lambda$60/820214818.get$Lambda (37 samples, 1.61%)</title><rect x="883.2" y="115.0" width="19.0" height="15" fill="#57e857" rx="2" ry="2"/>
<text x="886.2" y="126.0"></text>
</g>
<g>
<title>ru.mail.polis.service.temnovochka.ServiceImpl$$Lambda$60 (37 samples, 1.61%)</title><rect x="883.2" y="99.0" width="19.0" height="15" fill="#60cece" rx="2" ry="2"/>
<text x="886.2" y="110.0"></text>
</g>
<g>
<title>java/nio/ByteBuffer.wrap (62 samples, 2.69%)</title><rect x="902.2" y="147.0" width="31.7" height="15" fill="#5bec5b" rx="2" ry="2"/>
<text x="905.2" y="158.0">ja..</text>
</g>
<g>
<title>java/nio/ByteBuffer.wrap (62 samples, 2.69%)</title><rect x="902.2" y="131.0" width="31.7" height="15" fill="#66f766" rx="2" ry="2"/>
<text x="905.2" y="142.0">ja..</text>
</g>
<g>
<title>java.nio.HeapByteBuffer (62 samples, 2.69%)</title><rect x="902.2" y="115.0" width="31.7" height="15" fill="#5fcdcd" rx="2" ry="2"/>
<text x="905.2" y="126.0">ja..</text>
</g>
<g>
<title>one/nio/server/Server.asyncExecute (46 samples, 2.00%)</title><rect x="933.9" y="147.0" width="23.6" height="15" fill="#64f564" rx="2" ry="2"/>
<text x="936.9" y="158.0">o..</text>
</g>
<g>
<title>java/util/concurrent/ThreadPoolExecutor.execute (46 samples, 2.00%)</title><rect x="933.9" y="131.0" width="23.6" height="15" fill="#5ff05f" rx="2" ry="2"/>
<text x="936.9" y="142.0">j..</text>
</g>
<g>
<title>one/nio/server/WorkerPool$WaitingSynchronousQueue.offer (46 samples, 2.00%)</title><rect x="933.9" y="115.0" width="23.6" height="15" fill="#51e251" rx="2" ry="2"/>
<text x="936.9" y="126.0">o..</text>
</g>
<g>
<title>one/nio/server/WorkerPool$WaitingSynchronousQueue.offer (46 samples, 2.00%)</title><rect x="933.9" y="99.0" width="23.6" height="15" fill="#5dee5d" rx="2" ry="2"/>
<text x="936.9" y="110.0">o..</text>
</g>
<g>
<title>java/util/concurrent/SynchronousQueue.offer (46 samples, 2.00%)</title><rect x="933.9" y="83.0" width="23.6" height="15" fill="#6bfc6b" rx="2" ry="2"/>
<text x="936.9" y="94.0">j..</text>
</g>
<g>
<title>java/util/concurrent/SynchronousQueue$TransferStack.transfer (46 samples, 2.00%)</title><rect x="933.9" y="67.0" width="23.6" height="15" fill="#6bfc6b" rx="2" ry="2"/>
<text x="936.9" y="78.0">j..</text>
</g>
<g>
<title>java/util/concurrent/SynchronousQueue$TransferStack.snode (46 samples, 2.00%)</title><rect x="933.9" y="51.0" width="23.6" height="15" fill="#65f665" rx="2" ry="2"/>
<text x="936.9" y="62.0">j..</text>
</g>
<g>
<title>java.util.concurrent.SynchronousQueue$TransferStack$SNode (46 samples, 2.00%)</title><rect x="933.9" y="35.0" width="23.6" height="15" fill="#58c6c6" rx="2" ry="2"/>
<text x="936.9" y="46.0">j..</text>
</g>
<g>
<title>one/nio/http/Request.getPath (39 samples, 1.69%)</title><rect x="957.5" y="179.0" width="20.0" height="15" fill="#66f766" rx="2" ry="2"/>
<text x="960.5" y="190.0"></text>
</g>
<g>
<title>java/lang/String.substring (39 samples, 1.69%)</title><rect x="957.5" y="163.0" width="20.0" height="15" fill="#63f463" rx="2" ry="2"/>
<text x="960.5" y="174.0"></text>
</g>
<g>
<title>java/lang/StringLatin1.newString (39 samples, 1.69%)</title><rect x="957.5" y="147.0" width="20.0" height="15" fill="#5aeb5a" rx="2" ry="2"/>
<text x="960.5" y="158.0"></text>
</g>
<g>
<title>java.lang.String (11 samples, 0.48%)</title><rect x="957.5" y="131.0" width="5.6" height="15" fill="#64d2d2" rx="2" ry="2"/>
<text x="960.5" y="142.0"></text>
</g>
<g>
<title>java/util/Arrays.copyOfRange (28 samples, 1.22%)</title><rect x="963.1" y="131.0" width="14.4" height="15" fill="#54e554" rx="2" ry="2"/>
<text x="966.1" y="142.0"></text>
</g>
<g>
<title>byte[] (28 samples, 1.22%)</title><rect x="963.1" y="115.0" width="14.4" height="15" fill="#5dcbcb" rx="2" ry="2"/>
<text x="966.1" y="126.0"></text>
</g>
<g>
<title>one/nio/http/HttpSession.parseRequest (285 samples, 12.37%)</title><rect x="977.5" y="211.0" width="145.9" height="15" fill="#6afb6a" rx="2" ry="2"/>
<text x="980.5" y="222.0">one/nio/http/HttpS..</text>
</g>
<g>
<title>one.nio.http.Request (48 samples, 2.08%)</title><rect x="977.5" y="195.0" width="24.5" height="15" fill="#68d6d6" rx="2" ry="2"/>
<text x="980.5" y="206.0">o..</text>
</g>
<g>
<title>one/nio/http/Request.&lt;init&gt; (100 samples, 4.34%)</title><rect x="1002.0" y="195.0" width="51.3" height="15" fill="#59ea59" rx="2" ry="2"/>
<text x="1005.0" y="206.0">one/n..</text>
</g>
<g>
<title>java.lang.String[] (100 samples, 4.34%)</title><rect x="1002.0" y="179.0" width="51.3" height="15" fill="#56c4c4" rx="2" ry="2"/>
<text x="1005.0" y="190.0">java...</text>
</g>
<g>
<title>one/nio/util/Utf8.read (137 samples, 5.95%)</title><rect x="1053.3" y="195.0" width="70.1" height="15" fill="#6afb6a" rx="2" ry="2"/>
<text x="1056.3" y="206.0">one/nio/..</text>
</g>
<g>
<title>one/nio/util/Utf8.read (137 samples, 5.95%)</title><rect x="1053.3" y="179.0" width="70.1" height="15" fill="#5aeb5a" rx="2" ry="2"/>
<text x="1056.3" y="190.0">one/nio/..</text>
</g>
<g>
<title>char[] (71 samples, 3.08%)</title><rect x="1053.3" y="163.0" width="36.3" height="15" fill="#64d2d2" rx="2" ry="2"/>
<text x="1056.3" y="174.0">cha..</text>
</g>
<g>
<title>java.lang.String (23 samples, 1.00%)</title><rect x="1089.6" y="163.0" width="11.8" height="15" fill="#6cdada" rx="2" ry="2"/>
<text x="1092.6" y="174.0"></text>
</g>
<g>
<title>java/lang/String.&lt;init&gt; (43 samples, 1.87%)</title><rect x="1101.4" y="163.0" width="22.0" height="15" fill="#61f261" rx="2" ry="2"/>
<text x="1104.4" y="174.0">j..</text>
</g>
<g>
<title>java/lang/String.&lt;init&gt; (43 samples, 1.87%)</title><rect x="1101.4" y="147.0" width="22.0" height="15" fill="#63f463" rx="2" ry="2"/>
<text x="1104.4" y="158.0">j..</text>
</g>
<g>
<title>java/lang/StringUTF16.compress (43 samples, 1.87%)</title><rect x="1101.4" y="131.0" width="22.0" height="15" fill="#69fa69" rx="2" ry="2"/>
<text x="1104.4" y="142.0">j..</text>
</g>
<g>
<title>byte[] (43 samples, 1.87%)</title><rect x="1101.4" y="115.0" width="22.0" height="15" fill="#5dcbcb" rx="2" ry="2"/>
<text x="1104.4" y="126.0">b..</text>
</g>
<g>
<title>one/nio/util/Utf8.read (130 samples, 5.64%)</title><rect x="1123.4" y="211.0" width="66.6" height="15" fill="#6bfc6b" rx="2" ry="2"/>
<text x="1126.4" y="222.0">one/nio..</text>
</g>
<g>
<title>one/nio/util/Utf8.read (130 samples, 5.64%)</title><rect x="1123.4" y="195.0" width="66.6" height="15" fill="#5bec5b" rx="2" ry="2"/>
<text x="1126.4" y="206.0">one/nio..</text>
</g>
<g>
<title>char[] (64 samples, 2.78%)</title><rect x="1123.4" y="179.0" width="32.8" height="15" fill="#68d6d6" rx="2" ry="2"/>
<text x="1126.4" y="190.0">ch..</text>
</g>
<g>
<title>java.lang.String (24 samples, 1.04%)</title><rect x="1156.2" y="179.0" width="12.3" height="15" fill="#64d2d2" rx="2" ry="2"/>
<text x="1159.2" y="190.0"></text>
</g>
<g>
<title>java/lang/String.&lt;init&gt; (42 samples, 1.82%)</title><rect x="1168.5" y="179.0" width="21.5" height="15" fill="#6bfc6b" rx="2" ry="2"/>
<text x="1171.5" y="190.0">j..</text>
</g>
<g>
<title>java/lang/String.&lt;init&gt; (42 samples, 1.82%)</title><rect x="1168.5" y="163.0" width="21.5" height="15" fill="#5eef5e" rx="2" ry="2"/>
<text x="1171.5" y="174.0">j..</text>
</g>
<g>
<title>java/lang/StringUTF16.compress (42 samples, 1.82%)</title><rect x="1168.5" y="147.0" width="21.5" height="15" fill="#56e756" rx="2" ry="2"/>
<text x="1171.5" y="158.0">j..</text>
</g>
<g>
<title>byte[] (42 samples, 1.82%)</title><rect x="1168.5" y="131.0" width="21.5" height="15" fill="#6cdada" rx="2" ry="2"/>
<text x="1171.5" y="142.0">b..</text>
</g>
</g>
</svg>
