<?xml version="1.0" standalone="no"?>
<!DOCTYPE svg PUBLIC "-//W3C//DTD SVG 1.1//EN" "http://www.w3.org/Graphics/SVG/1.1/DTD/svg11.dtd">
<svg version="1.1" width="1200" height="342" onload="init(evt)" viewBox="0 0 1200 342" xmlns="http://www.w3.org/2000/svg" xmlns:xlink="http://www.w3.org/1999/xlink">
<style type="text/css">
	text { font-family:Verdana; font-size:12px; fill:rgb(0,0,0); }
	#search { opacity:0.1; cursor:pointer; }
	#search:hover, #search.show { opacity:1; }
	#subtitle { text-anchor:middle; font-color:rgb(160,160,160); }
	#title { text-anchor:middle; font-size:17px}
	#unzoom { cursor:pointer; }
	#frames > *:hover { stroke:black; stroke-width:0.5; cursor:pointer; }
	.hide { display:none; }
	.parent { opacity:0.5; }
</style>
<script type="text/ecmascript">
<![CDATA[
	"use strict";
	var details, searchbtn, unzoombtn, matchedtxt, svg, searching;
	function init(evt) {
		details = document.getElementById("details").firstChild;
		searchbtn = document.getElementById("search");
		unzoombtn = document.getElementById("unzoom");
		matchedtxt = document.getElementById("matched");
		svg = document.getElementsByTagName("svg")[0];
		searching = 0;
	}

	window.addEventListener("click", function(e) {
		var target = find_group(e.target);
		if (target) {
			if (target.nodeName == "a") {
				if (e.ctrlKey === false) return;
				e.preventDefault();
			}
			if (target.classList.contains("parent")) unzoom();
			zoom(target);
		}
		else if (e.target.id == "unzoom") unzoom();
		else if (e.target.id == "search") search_prompt();
	}, false)

	// mouse-over for info
	// show
	window.addEventListener("mouseover", function(e) {
		var target = find_group(e.target);
		if (target) details.nodeValue = "Function: " + g_to_text(target);
	}, false)

	// clear
	window.addEventListener("mouseout", function(e) {
		var target = find_group(e.target);
		if (target) details.nodeValue = ' ';
	}, false)

	// ctrl-F for search
	window.addEventListener("keydown",function (e) {
		if (e.keyCode === 114 || (e.ctrlKey && e.keyCode === 70)) {
			e.preventDefault();
			search_prompt();
		}
	}, false)

	// functions
	function find_child(node, selector) {
		var children = node.querySelectorAll(selector);
		if (children.length) return children[0];
		return;
	}
	function find_group(node) {
		var parent = node.parentElement;
		if (!parent) return;
		if (parent.id == "frames") return node;
		return find_group(parent);
	}
	function orig_save(e, attr, val) {
		if (e.attributes["_orig_" + attr] != undefined) return;
		if (e.attributes[attr] == undefined) return;
		if (val == undefined) val = e.attributes[attr].value;
		e.setAttribute("_orig_" + attr, val);
	}
	function orig_load(e, attr) {
		if (e.attributes["_orig_"+attr] == undefined) return;
		e.attributes[attr].value = e.attributes["_orig_" + attr].value;
		e.removeAttribute("_orig_"+attr);
	}
	function g_to_text(e) {
		var text = find_child(e, "title").firstChild.nodeValue;
		return (text)
	}
	function g_to_func(e) {
		var func = g_to_text(e);
		// if there's any manipulation we want to do to the function
		// name before it's searched, do it here before returning.
		return (func);
	}
	function update_text(e) {
		var r = find_child(e, "rect");
		var t = find_child(e, "text");
		var w = parseFloat(r.attributes.width.value) -3;
		var txt = find_child(e, "title").textContent.replace(/\([^(]*\)$/,"");
		t.attributes.x.value = parseFloat(r.attributes.x.value) + 3;

		// Smaller than this size won't fit anything
		if (w < 2 * 12 * 0.59) {
			t.textContent = "";
			return;
		}

		t.textContent = txt;
		// Fit in full text width
		if (/^ *$/.test(txt) || t.getSubStringLength(0, txt.length) < w)
			return;

		for (var x = txt.length - 2; x > 0; x--) {
			if (t.getSubStringLength(0, x + 2) <= w) {
				t.textContent = txt.substring(0, x) + "..";
				return;
			}
		}
		t.textContent = "";
	}

	// zoom
	function zoom_reset(e) {
		if (e.attributes != undefined) {
			orig_load(e, "x");
			orig_load(e, "width");
		}
		if (e.childNodes == undefined) return;
		for (var i = 0, c = e.childNodes; i < c.length; i++) {
			zoom_reset(c[i]);
		}
	}
	function zoom_child(e, x, ratio) {
		if (e.attributes != undefined) {
			if (e.attributes.x != undefined) {
				orig_save(e, "x");
				e.attributes.x.value = (parseFloat(e.attributes.x.value) - x - 10) * ratio + 10;
				if (e.tagName == "text")
					e.attributes.x.value = find_child(e.parentNode, "rect[x]").attributes.x.value + 3;
			}
			if (e.attributes.width != undefined) {
				orig_save(e, "width");
				e.attributes.width.value = parseFloat(e.attributes.width.value) * ratio;
			}
		}

		if (e.childNodes == undefined) return;
		for (var i = 0, c = e.childNodes; i < c.length; i++) {
			zoom_child(c[i], x - 10, ratio);
		}
	}
	function zoom_parent(e) {
		if (e.attributes) {
			if (e.attributes.x != undefined) {
				orig_save(e, "x");
				e.attributes.x.value = 10;
			}
			if (e.attributes.width != undefined) {
				orig_save(e, "width");
				e.attributes.width.value = parseInt(svg.width.baseVal.value) - (10 * 2);
			}
		}
		if (e.childNodes == undefined) return;
		for (var i = 0, c = e.childNodes; i < c.length; i++) {
			zoom_parent(c[i]);
		}
	}
	function zoom(node) {
		var attr = find_child(node, "rect").attributes;
		var width = parseFloat(attr.width.value);
		var xmin = parseFloat(attr.x.value);
		var xmax = parseFloat(xmin + width);
		var ymin = parseFloat(attr.y.value);
		var ratio = (svg.width.baseVal.value - 2 * 10) / width;

		// XXX: Workaround for JavaScript float issues (fix me)
		var fudge = 0.0001;

		unzoombtn.classList.remove("hide");

		var el = document.getElementById("frames").children;
		for (var i = 0; i < el.length; i++) {
			var e = el[i];
			var a = find_child(e, "rect").attributes;
			var ex = parseFloat(a.x.value);
			var ew = parseFloat(a.width.value);
			var upstack;
			// Is it an ancestor
			if (0 == 0) {
				upstack = parseFloat(a.y.value) > ymin;
			} else {
				upstack = parseFloat(a.y.value) < ymin;
			}
			if (upstack) {
				// Direct ancestor
				if (ex <= xmin && (ex+ew+fudge) >= xmax) {
					e.classList.add("parent");
					zoom_parent(e);
					update_text(e);
				}
				// not in current path
				else
					e.classList.add("hide");
			}
			// Children maybe
			else {
				// no common path
				if (ex < xmin || ex + fudge >= xmax) {
					e.classList.add("hide");
				}
				else {
					zoom_child(e, xmin, ratio);
					update_text(e);
				}
			}
		}
	}
	function unzoom() {
		unzoombtn.classList.add("hide");
		var el = document.getElementById("frames").children;
		for(var i = 0; i < el.length; i++) {
			el[i].classList.remove("parent");
			el[i].classList.remove("hide");
			zoom_reset(el[i]);
			update_text(el[i]);
		}
	}

	// search
	function reset_search() {
		var el = document.querySelectorAll("#frames rect");
		for (var i = 0; i < el.length; i++) {
			orig_load(el[i], "fill")
		}
	}
	function search_prompt() {
		if (!searching) {
			var term = prompt("Enter a search term (regexp " +
			    "allowed, eg: ^ext4_)", "");
			if (term != null) {
				search(term)
			}
		} else {
			reset_search();
			searching = 0;
			searchbtn.classList.remove("show");
			searchbtn.firstChild.nodeValue = "Search"
			matchedtxt.classList.add("hide");
			matchedtxt.firstChild.nodeValue = ""
		}
	}
	function search(term) {
		var re = new RegExp(term);
		var el = document.getElementById("frames").children;
		var matches = new Object();
		var maxwidth = 0;
		for (var i = 0; i < el.length; i++) {
			var e = el[i];
			var func = g_to_func(e);
			var rect = find_child(e, "rect");
			if (func == null || rect == null)
				continue;

			// Save max width. Only works as we have a root frame
			var w = parseFloat(rect.attributes.width.value);
			if (w > maxwidth)
				maxwidth = w;

			if (func.match(re)) {
				// highlight
				var x = parseFloat(rect.attributes.x.value);
				orig_save(rect, "fill");
				rect.attributes.fill.value = "rgb(230,0,230)";

				// remember matches
				if (matches[x] == undefined) {
					matches[x] = w;
				} else {
					if (w > matches[x]) {
						// overwrite with parent
						matches[x] = w;
					}
				}
				searching = 1;
			}
		}
		if (!searching)
			return;

		searchbtn.classList.add("show");
		searchbtn.firstChild.nodeValue = "Reset Search";

		// calculate percent matched, excluding vertical overlap
		var count = 0;
		var lastx = -1;
		var lastw = 0;
		var keys = Array();
		for (k in matches) {
			if (matches.hasOwnProperty(k))
				keys.push(k);
		}
		// sort the matched frames by their x location
		// ascending, then width descending
		keys.sort(function(a, b){
			return a - b;
		});
		// Step through frames saving only the biggest bottom-up frames
		// thanks to the sort order. This relies on the tree property
		// where children are always smaller than their parents.
		var fudge = 0.0001;	// JavaScript floating point
		for (var k in keys) {
			var x = parseFloat(keys[k]);
			var w = matches[keys[k]];
			if (x >= lastx + lastw - fudge) {
				count += w;
				lastx = x;
				lastw = w;
			}
		}
		// display matched percent
		matchedtxt.classList.remove("hide");
		var pct = 100 * count / maxwidth;
		if (pct != 100) pct = pct.toFixed(1)
		matchedtxt.firstChild.nodeValue = "Matched: " + pct + "%";
	}
]]>
</script>
<rect x="0" y="0" width="100%" height="100%" fill="rgb(240,240,220)"/>
<text id="title" x="600" y="24">Flame Graph</text>
<text id="details" x="10" y="325"> </text>
<text id="unzoom" x="10" y="24" class="hide">Reset Zoom</text>
<text id="search" x="1090" y="24">Search</text>
<text id="matched" x="1090" y="325"> </text>
<g id="frames">
<g>
<title>all (1,481 samples, 100.00%)</title><rect x="10.0" y="291.0" width="1180.0" height="15" fill="#e15b5b" rx="2" ry="2"/>
<text x="13.0" y="302.0">all</text>
</g>
<g>
<title>[not_walkable] (1 samples, 0.07%)</title><rect x="10.0" y="275.0" width="0.8" height="15" fill="#f06f6f" rx="2" ry="2"/>
<text x="13.0" y="286.0"></text>
</g>
<g>
<title>java.lang.String (1 samples, 0.07%)</title><rect x="10.0" y="259.0" width="0.8" height="15" fill="#56c4c4" rx="2" ry="2"/>
<text x="13.0" y="270.0"></text>
</g>
<g>
<title>java/lang/NoSuchMethodError.&lt;init&gt; (1 samples, 0.07%)</title><rect x="10.8" y="275.0" width="0.8" height="15" fill="#5aeb5a" rx="2" ry="2"/>
<text x="13.8" y="286.0"></text>
</g>
<g>
<title>java/lang/IncompatibleClassChangeError.&lt;init&gt; (1 samples, 0.07%)</title><rect x="10.8" y="259.0" width="0.8" height="15" fill="#5dee5d" rx="2" ry="2"/>
<text x="13.8" y="270.0"></text>
</g>
<g>
<title>java/lang/LinkageError.&lt;init&gt; (1 samples, 0.07%)</title><rect x="10.8" y="243.0" width="0.8" height="15" fill="#5dee5d" rx="2" ry="2"/>
<text x="13.8" y="254.0"></text>
</g>
<g>
<title>java/lang/Error.&lt;init&gt; (1 samples, 0.07%)</title><rect x="10.8" y="227.0" width="0.8" height="15" fill="#57e857" rx="2" ry="2"/>
<text x="13.8" y="238.0"></text>
</g>
<g>
<title>java/lang/Throwable.&lt;init&gt; (1 samples, 0.07%)</title><rect x="10.8" y="211.0" width="0.8" height="15" fill="#5dee5d" rx="2" ry="2"/>
<text x="13.8" y="222.0"></text>
</g>
<g>
<title>java/lang/Throwable.fillInStackTrace (1 samples, 0.07%)</title><rect x="10.8" y="195.0" width="0.8" height="15" fill="#62f362" rx="2" ry="2"/>
<text x="13.8" y="206.0"></text>
</g>
<g>
<title>java/lang/Throwable.fillInStackTrace (1 samples, 0.07%)</title><rect x="10.8" y="179.0" width="0.8" height="15" fill="#69fa69" rx="2" ry="2"/>
<text x="13.8" y="190.0"></text>
</g>
<g>
<title>long[] (1 samples, 0.07%)</title><rect x="10.8" y="163.0" width="0.8" height="15" fill="#f38f00" rx="2" ry="2"/>
<text x="13.8" y="174.0"></text>
</g>
<g>
<title>java/lang/Thread.run (526 samples, 35.52%)</title><rect x="11.6" y="275.0" width="419.1" height="15" fill="#61f261" rx="2" ry="2"/>
<text x="14.6" y="286.0">java/lang/Thread.run</text>
</g>
<g>
<title>java/util/concurrent/ThreadPoolExecutor$Worker.run (526 samples, 35.52%)</title><rect x="11.6" y="259.0" width="419.1" height="15" fill="#58e958" rx="2" ry="2"/>
<text x="14.6" y="270.0">java/util/concurrent/ThreadPoolExecutor$Worker.run</text>
</g>
<g>
<title>java/util/concurrent/ThreadPoolExecutor.runWorker (526 samples, 35.52%)</title><rect x="11.6" y="243.0" width="419.1" height="15" fill="#62f362" rx="2" ry="2"/>
<text x="14.6" y="254.0">java/util/concurrent/ThreadPoolExecutor.runWorker</text>
</g>
<g>
<title>java/util/concurrent/ThreadPoolExecutor.getTask (70 samples, 4.73%)</title><rect x="11.6" y="227.0" width="55.8" height="15" fill="#51e251" rx="2" ry="2"/>
<text x="14.6" y="238.0">java/..</text>
</g>
<g>
<title>java/util/concurrent/SynchronousQueue.poll (70 samples, 4.73%)</title><rect x="11.6" y="211.0" width="55.8" height="15" fill="#51e251" rx="2" ry="2"/>
<text x="14.6" y="222.0">java/..</text>
</g>
<g>
<title>java/util/concurrent/SynchronousQueue$TransferStack.transfer (70 samples, 4.73%)</title><rect x="11.6" y="195.0" width="55.8" height="15" fill="#5dee5d" rx="2" ry="2"/>
<text x="14.6" y="206.0">java/..</text>
</g>
<g>
<title>java/util/concurrent/SynchronousQueue$TransferStack.snode (70 samples, 4.73%)</title><rect x="11.6" y="179.0" width="55.8" height="15" fill="#53e453" rx="2" ry="2"/>
<text x="14.6" y="190.0">java/..</text>
</g>
<g>
<title>java.util.concurrent.SynchronousQueue$TransferStack$SNode (70 samples, 4.73%)</title><rect x="11.6" y="163.0" width="55.8" height="15" fill="#6bd9d9" rx="2" ry="2"/>
<text x="14.6" y="174.0">java...</text>
</g>
<g>
<title>ru/mail/polis/service/temnovochka/ServiceImpl$$Lambda$60/820214818.run (456 samples, 30.79%)</title><rect x="67.4" y="227.0" width="363.3" height="15" fill="#52e352" rx="2" ry="2"/>
<text x="70.4" y="238.0">ru/mail/polis/service/temnovochka/ServiceImpl$$La..</text>
</g>
<g>
<title>ru/mail/polis/service/temnovochka/ServiceImpl.lambda$entity$0 (456 samples, 30.79%)</title><rect x="67.4" y="211.0" width="363.3" height="15" fill="#63f463" rx="2" ry="2"/>
<text x="70.4" y="222.0">ru/mail/polis/service/temnovochka/ServiceImpl.lam..</text>
</g>
<g>
<title>one/nio/http/HttpSession.sendResponse (177 samples, 11.95%)</title><rect x="67.4" y="195.0" width="141.0" height="15" fill="#6bfc6b" rx="2" ry="2"/>
<text x="70.4" y="206.0">one/nio/http/HttpS..</text>
</g>
<g>
<title>one/nio/http/HttpSession.writeResponse (177 samples, 11.95%)</title><rect x="67.4" y="179.0" width="141.0" height="15" fill="#69fa69" rx="2" ry="2"/>
<text x="70.4" y="190.0">one/nio/http/HttpS..</text>
</g>
<g>
<title>one/nio/http/Response.toBytes (138 samples, 9.32%)</title><rect x="67.4" y="163.0" width="109.9" height="15" fill="#6dfe6d" rx="2" ry="2"/>
<text x="70.4" y="174.0">one/nio/http/..</text>
</g>
<g>
<title>one/nio/util/ByteArrayBuilder.&lt;init&gt; (138 samples, 9.32%)</title><rect x="67.4" y="147.0" width="109.9" height="15" fill="#6bfc6b" rx="2" ry="2"/>
<text x="70.4" y="158.0">one/nio/util/..</text>
</g>
<g>
<title>byte[] (138 samples, 9.32%)</title><rect x="67.4" y="131.0" width="109.9" height="15" fill="#6ad8d8" rx="2" ry="2"/>
<text x="70.4" y="142.0">byte[]</text>
</g>
<g>
<title>one/nio/net/Session.write (39 samples, 2.63%)</title><rect x="177.3" y="163.0" width="31.1" height="15" fill="#57e857" rx="2" ry="2"/>
<text x="180.3" y="174.0">on..</text>
</g>
<g>
<title>one.nio.net.Session$ArrayQueueItem (39 samples, 2.63%)</title><rect x="177.3" y="147.0" width="31.1" height="15" fill="#54c2c2" rx="2" ry="2"/>
<text x="180.3" y="158.0">on..</text>
</g>
<g>
<title>ru/mail/polis/service/temnovochka/ServiceImpl.responseProcessEntity (279 samples, 18.84%)</title><rect x="208.4" y="195.0" width="222.3" height="15" fill="#52e352" rx="2" ry="2"/>
<text x="211.4" y="206.0">ru/mail/polis/service/temnovo..</text>
</g>
<g>
<title>one.nio.http.Response (23 samples, 1.55%)</title><rect x="208.4" y="179.0" width="18.3" height="15" fill="#64d2d2" rx="2" ry="2"/>
<text x="211.4" y="190.0"></text>
</g>
<g>
<title>one/nio/http/Response.&lt;init&gt; (160 samples, 10.80%)</title><rect x="226.7" y="179.0" width="127.5" height="15" fill="#51e251" rx="2" ry="2"/>
<text x="229.7" y="190.0">one/nio/http/Res..</text>
</g>
<g>
<title>byte[] (88 samples, 5.94%)</title><rect x="226.7" y="163.0" width="70.1" height="15" fill="#53c1c1" rx="2" ry="2"/>
<text x="229.7" y="174.0">byte[]</text>
</g>
<g>
<title>java.lang.String[] (43 samples, 2.90%)</title><rect x="296.8" y="163.0" width="34.3" height="15" fill="#56c4c4" rx="2" ry="2"/>
<text x="299.8" y="174.0">ja..</text>
</g>
<g>
<title>java.lang.String (29 samples, 1.96%)</title><rect x="331.1" y="163.0" width="23.1" height="15" fill="#58c6c6" rx="2" ry="2"/>
<text x="334.1" y="174.0">j..</text>
</g>
<g>
<title>ru/mail/polis/dao/DAOImpl.upsert (96 samples, 6.48%)</title><rect x="354.2" y="179.0" width="76.5" height="15" fill="#5eef5e" rx="2" ry="2"/>
<text x="357.2" y="190.0">ru/mail/..</text>
</g>
<g>
<title>ru/mail/polis/dao/ByteArrayUtils.getArrayFromByteBuffer (20 samples, 1.35%)</title><rect x="354.2" y="163.0" width="15.9" height="15" fill="#64f564" rx="2" ry="2"/>
<text x="357.2" y="174.0"></text>
</g>
<g>
<title>byte[] (20 samples, 1.35%)</title><rect x="354.2" y="147.0" width="15.9" height="15" fill="#65d3d3" rx="2" ry="2"/>
<text x="357.2" y="158.0"></text>
</g>
<g>
<title>ru/mail/polis/dao/ByteArrayUtils.packingKey (76 samples, 5.13%)</title><rect x="370.1" y="163.0" width="60.6" height="15" fill="#65f665" rx="2" ry="2"/>
<text x="373.1" y="174.0">ru/mai..</text>
</g>
<g>
<title>ru/mail/polis/dao/ByteArrayUtils.getArrayFromByteBuffer (76 samples, 5.13%)</title><rect x="370.1" y="147.0" width="60.6" height="15" fill="#53e453" rx="2" ry="2"/>
<text x="373.1" y="158.0">ru/mai..</text>
</g>
<g>
<title>byte[] (76 samples, 5.13%)</title><rect x="370.1" y="131.0" width="60.6" height="15" fill="#5ac8c8" rx="2" ry="2"/>
<text x="373.1" y="142.0">byte[]</text>
</g>
<g>
<title>one/nio/server/SelectorThread.run (953 samples, 64.35%)</title><rect x="430.7" y="275.0" width="759.3" height="15" fill="#60f160" rx="2" ry="2"/>
<text x="433.7" y="286.0">one/nio/server/SelectorThread.run</text>
</g>
<g>
<title>one/nio/net/NativeSelector.select (38 samples, 2.57%)</title><rect x="430.7" y="259.0" width="30.3" height="15" fill="#65f665" rx="2" ry="2"/>
<text x="433.7" y="270.0">on..</text>
</g>
<g>
<title>one.nio.net.NativeSelector$2 (38 samples, 2.57%)</title><rect x="430.7" y="243.0" width="30.3" height="15" fill="#6bd9d9" rx="2" ry="2"/>
<text x="433.7" y="254.0">on..</text>
</g>
<g>
<title>one/nio/net/Session.handleException (1 samples, 0.07%)</title><rect x="461.0" y="259.0" width="0.8" height="15" fill="#69fa69" rx="2" ry="2"/>
<text x="464.0" y="270.0"></text>
</g>
<g>
<title>one/nio/net/Session.getRemoteHost (1 samples, 0.07%)</title><rect x="461.0" y="243.0" width="0.8" height="15" fill="#59ea59" rx="2" ry="2"/>
<text x="464.0" y="254.0"></text>
</g>
<g>
<title>one/nio/net/NativeSocket.getRemoteAddress (1 samples, 0.07%)</title><rect x="461.0" y="227.0" width="0.8" height="15" fill="#6cfd6c" rx="2" ry="2"/>
<text x="464.0" y="238.0"></text>
</g>
<g>
<title>one/nio/net/NativeSocket.makeAddress (1 samples, 0.07%)</title><rect x="461.0" y="211.0" width="0.8" height="15" fill="#6afb6a" rx="2" ry="2"/>
<text x="464.0" y="222.0"></text>
</g>
<g>
<title>java/net/InetSocketAddress.&lt;init&gt; (1 samples, 0.07%)</title><rect x="461.0" y="195.0" width="0.8" height="15" fill="#67f867" rx="2" ry="2"/>
<text x="464.0" y="206.0"></text>
</g>
<g>
<title>java.net.InetSocketAddress$InetSocketAddressHolder (1 samples, 0.07%)</title><rect x="461.0" y="179.0" width="0.8" height="15" fill="#52c0c0" rx="2" ry="2"/>
<text x="464.0" y="190.0"></text>
</g>
<g>
<title>one/nio/net/Session.process (914 samples, 61.72%)</title><rect x="461.8" y="259.0" width="728.2" height="15" fill="#68f968" rx="2" ry="2"/>
<text x="464.8" y="270.0">one/nio/net/Session.process</text>
</g>
<g>
<title>one/nio/http/HttpSession.processRead (914 samples, 61.72%)</title><rect x="461.8" y="243.0" width="728.2" height="15" fill="#6afb6a" rx="2" ry="2"/>
<text x="464.8" y="254.0">one/nio/http/HttpSession.processRead</text>
</g>
<g>
<title>one/nio/http/HttpSession.processHttpBuffer (914 samples, 61.72%)</title><rect x="461.8" y="227.0" width="728.2" height="15" fill="#66f766" rx="2" ry="2"/>
<text x="464.8" y="238.0">one/nio/http/HttpSession.processHttpBuffer</text>
</g>
<g>
<title>one/nio/http/HttpSession.handleParsedRequest (291 samples, 19.65%)</title><rect x="461.8" y="211.0" width="231.8" height="15" fill="#66f766" rx="2" ry="2"/>
<text x="464.8" y="222.0">one/nio/http/HttpSession.handle..</text>
</g>
<g>
<title>one/nio/http/HttpServer.handleRequest (291 samples, 19.65%)</title><rect x="461.8" y="195.0" width="231.8" height="15" fill="#65f665" rx="2" ry="2"/>
<text x="464.8" y="206.0">one/nio/http/HttpServer.handleR..</text>
</g>
<g>
<title>RequestHandler1_entity.handleRequest (216 samples, 14.58%)</title><rect x="461.8" y="179.0" width="172.1" height="15" fill="#65f665" rx="2" ry="2"/>
<text x="464.8" y="190.0">RequestHandler1_entity..</text>
</g>
<g>
<title>one/nio/http/Request.getParameter (57 samples, 3.85%)</title><rect x="461.8" y="163.0" width="45.4" height="15" fill="#63f463" rx="2" ry="2"/>
<text x="464.8" y="174.0">one/..</text>
</g>
<g>
<title>java/lang/String.substring (57 samples, 3.85%)</title><rect x="461.8" y="147.0" width="45.4" height="15" fill="#62f362" rx="2" ry="2"/>
<text x="464.8" y="158.0">java..</text>
</g>
<g>
<title>java/lang/StringLatin1.newString (57 samples, 3.85%)</title><rect x="461.8" y="131.0" width="45.4" height="15" fill="#6dfe6d" rx="2" ry="2"/>
<text x="464.8" y="142.0">java..</text>
</g>
<g>
<title>java.lang.String (24 samples, 1.62%)</title><rect x="461.8" y="115.0" width="19.1" height="15" fill="#67d5d5" rx="2" ry="2"/>
<text x="464.8" y="126.0"></text>
</g>
<g>
<title>java/util/Arrays.copyOfRange (33 samples, 2.23%)</title><rect x="480.9" y="115.0" width="26.3" height="15" fill="#65f665" rx="2" ry="2"/>
<text x="483.9" y="126.0">j..</text>
</g>
<g>
<title>byte[] (33 samples, 2.23%)</title><rect x="480.9" y="99.0" width="26.3" height="15" fill="#64d2d2" rx="2" ry="2"/>
<text x="483.9" y="110.0">b..</text>
</g>
<g>
<title>ru/mail/polis/service/temnovochka/ServiceImpl.entity (159 samples, 10.74%)</title><rect x="507.2" y="163.0" width="126.7" height="15" fill="#69fa69" rx="2" ry="2"/>
<text x="510.2" y="174.0">ru/mail/polis/se..</text>
</g>
<g>
<title>java/lang/String.getBytes (18 samples, 1.22%)</title><rect x="507.2" y="147.0" width="14.3" height="15" fill="#68f968" rx="2" ry="2"/>
<text x="510.2" y="158.0"></text>
</g>
<g>
<title>java/lang/StringCoding.encode (18 samples, 1.22%)</title><rect x="507.2" y="131.0" width="14.3" height="15" fill="#6afb6a" rx="2" ry="2"/>
<text x="510.2" y="142.0"></text>
</g>
<g>
<title>java/lang/StringCoding.encodeUTF8 (18 samples, 1.22%)</title><rect x="507.2" y="115.0" width="14.3" height="15" fill="#53e453" rx="2" ry="2"/>
<text x="510.2" y="126.0"></text>
</g>
<g>
<title>java/util/Arrays.copyOf (18 samples, 1.22%)</title><rect x="507.2" y="99.0" width="14.3" height="15" fill="#58e958" rx="2" ry="2"/>
<text x="510.2" y="110.0"></text>
</g>
<g>
<title>byte[] (18 samples, 1.22%)</title><rect x="507.2" y="83.0" width="14.3" height="15" fill="#61cfcf" rx="2" ry="2"/>
<text x="510.2" y="94.0"></text>
</g>
<g>
<title>java/lang/invoke/Invokers$Holder.linkToTargetMethod (34 samples, 2.30%)</title><rect x="521.5" y="147.0" width="27.1" height="15" fill="#69fa69" rx="2" ry="2"/>
<text x="524.5" y="158.0">j..</text>
</g>
<g>
<title>java/lang/invoke/DirectMethodHandle$Holder.invokeStatic (34 samples, 2.30%)</title><rect x="521.5" y="131.0" width="27.1" height="15" fill="#50e150" rx="2" ry="2"/>
<text x="524.5" y="142.0">j..</text>
</g>
<g>
<title>ru/mail/polis/service/temnovochka/ServiceImpl$$Lambda$60/820214818.get$Lambda (34 samples, 2.30%)</title><rect x="521.5" y="115.0" width="27.1" height="15" fill="#64f564" rx="2" ry="2"/>
<text x="524.5" y="126.0">r..</text>
</g>
<g>
<title>ru.mail.polis.service.temnovochka.ServiceImpl$$Lambda$60 (34 samples, 2.30%)</title><rect x="521.5" y="99.0" width="27.1" height="15" fill="#55c3c3" rx="2" ry="2"/>
<text x="524.5" y="110.0">r..</text>
</g>
<g>
<title>java/nio/ByteBuffer.wrap (55 samples, 3.71%)</title><rect x="548.6" y="147.0" width="43.8" height="15" fill="#60f160" rx="2" ry="2"/>
<text x="551.6" y="158.0">java..</text>
</g>
<g>
<title>java/nio/ByteBuffer.wrap (55 samples, 3.71%)</title><rect x="548.6" y="131.0" width="43.8" height="15" fill="#5ced5c" rx="2" ry="2"/>
<text x="551.6" y="142.0">java..</text>
</g>
<g>
<title>java.nio.HeapByteBuffer (55 samples, 3.71%)</title><rect x="548.6" y="115.0" width="43.8" height="15" fill="#53c1c1" rx="2" ry="2"/>
<text x="551.6" y="126.0">java..</text>
</g>
<g>
<title>one/nio/server/Server.asyncExecute (52 samples, 3.51%)</title><rect x="592.4" y="147.0" width="41.5" height="15" fill="#5ced5c" rx="2" ry="2"/>
<text x="595.4" y="158.0">one..</text>
</g>
<g>
<title>java/util/concurrent/ThreadPoolExecutor.execute (52 samples, 3.51%)</title><rect x="592.4" y="131.0" width="41.5" height="15" fill="#66f766" rx="2" ry="2"/>
<text x="595.4" y="142.0">jav..</text>
</g>
<g>
<title>java/util/concurrent/ThreadPoolExecutor.reject (1 samples, 0.07%)</title><rect x="592.4" y="115.0" width="0.8" height="15" fill="#52e352" rx="2" ry="2"/>
<text x="595.4" y="126.0"></text>
</g>
<g>
<title>java/util/concurrent/ThreadPoolExecutor$AbortPolicy.rejectedExecution (1 samples, 0.07%)</title><rect x="592.4" y="99.0" width="0.8" height="15" fill="#58e958" rx="2" ry="2"/>
<text x="595.4" y="110.0"></text>
</g>
<g>
<title>java/lang/Object.toString (1 samples, 0.07%)</title><rect x="592.4" y="83.0" width="0.8" height="15" fill="#5ff05f" rx="2" ry="2"/>
<text x="595.4" y="94.0"></text>
</g>
<g>
<title>java/lang/Integer.toHexString (1 samples, 0.07%)</title><rect x="592.4" y="67.0" width="0.8" height="15" fill="#55e655" rx="2" ry="2"/>
<text x="595.4" y="78.0"></text>
</g>
<g>
<title>java/lang/Integer.toUnsignedString0 (1 samples, 0.07%)</title><rect x="592.4" y="51.0" width="0.8" height="15" fill="#53e453" rx="2" ry="2"/>
<text x="595.4" y="62.0"></text>
</g>
<g>
<title>java.lang.String (1 samples, 0.07%)</title><rect x="592.4" y="35.0" width="0.8" height="15" fill="#5ccaca" rx="2" ry="2"/>
<text x="595.4" y="46.0"></text>
</g>
<g>
<title>one/nio/server/WorkerPool$WaitingSynchronousQueue.offer (51 samples, 3.44%)</title><rect x="593.2" y="115.0" width="40.7" height="15" fill="#6bfc6b" rx="2" ry="2"/>
<text x="596.2" y="126.0">one..</text>
</g>
<g>
<title>one/nio/server/WorkerPool$WaitingSynchronousQueue.offer (51 samples, 3.44%)</title><rect x="593.2" y="99.0" width="40.7" height="15" fill="#69fa69" rx="2" ry="2"/>
<text x="596.2" y="110.0">one..</text>
</g>
<g>
<title>java/util/concurrent/SynchronousQueue.offer (51 samples, 3.44%)</title><rect x="593.2" y="83.0" width="40.7" height="15" fill="#54e554" rx="2" ry="2"/>
<text x="596.2" y="94.0">jav..</text>
</g>
<g>
<title>java/util/concurrent/SynchronousQueue$TransferStack.transfer (51 samples, 3.44%)</title><rect x="593.2" y="67.0" width="40.7" height="15" fill="#63f463" rx="2" ry="2"/>
<text x="596.2" y="78.0">jav..</text>
</g>
<g>
<title>java/util/concurrent/SynchronousQueue$TransferStack.snode (51 samples, 3.44%)</title><rect x="593.2" y="51.0" width="40.7" height="15" fill="#5eef5e" rx="2" ry="2"/>
<text x="596.2" y="62.0">jav..</text>
</g>
<g>
<title>java.util.concurrent.SynchronousQueue$TransferStack$SNode (51 samples, 3.44%)</title><rect x="593.2" y="35.0" width="40.7" height="15" fill="#66d4d4" rx="2" ry="2"/>
<text x="596.2" y="46.0">jav..</text>
</g>
<g>
<title>one/nio/http/Request.getPath (75 samples, 5.06%)</title><rect x="633.9" y="179.0" width="59.7" height="15" fill="#62f362" rx="2" ry="2"/>
<text x="636.9" y="190.0">one/ni..</text>
</g>
<g>
<title>java/lang/String.substring (75 samples, 5.06%)</title><rect x="633.9" y="163.0" width="59.7" height="15" fill="#58e958" rx="2" ry="2"/>
<text x="636.9" y="174.0">java/l..</text>
</g>
<g>
<title>java/lang/StringLatin1.newString (75 samples, 5.06%)</title><rect x="633.9" y="147.0" width="59.7" height="15" fill="#5dee5d" rx="2" ry="2"/>
<text x="636.9" y="158.0">java/l..</text>
</g>
<g>
<title>java.lang.String (21 samples, 1.42%)</title><rect x="633.9" y="131.0" width="16.7" height="15" fill="#59c7c7" rx="2" ry="2"/>
<text x="636.9" y="142.0"></text>
</g>
<g>
<title>java/util/Arrays.copyOfRange (54 samples, 3.65%)</title><rect x="650.6" y="131.0" width="43.0" height="15" fill="#54e554" rx="2" ry="2"/>
<text x="653.6" y="142.0">java..</text>
</g>
<g>
<title>byte[] (54 samples, 3.65%)</title><rect x="650.6" y="115.0" width="43.0" height="15" fill="#58c6c6" rx="2" ry="2"/>
<text x="653.6" y="126.0">byte[]</text>
</g>
<g>
<title>one/nio/http/HttpSession.parseRequest (270 samples, 18.23%)</title><rect x="693.6" y="211.0" width="215.1" height="15" fill="#55e655" rx="2" ry="2"/>
<text x="696.6" y="222.0">one/nio/http/HttpSession.par..</text>
</g>
<g>
<title>one.nio.http.Request (60 samples, 4.05%)</title><rect x="693.6" y="195.0" width="47.8" height="15" fill="#57c5c5" rx="2" ry="2"/>
<text x="696.6" y="206.0">one...</text>
</g>
<g>
<title>one/nio/http/Request.&lt;init&gt; (73 samples, 4.93%)</title><rect x="741.4" y="195.0" width="58.2" height="15" fill="#61f261" rx="2" ry="2"/>
<text x="744.4" y="206.0">one/ni..</text>
</g>
<g>
<title>java.lang.String[] (73 samples, 4.93%)</title><rect x="741.4" y="179.0" width="58.2" height="15" fill="#67d5d5" rx="2" ry="2"/>
<text x="744.4" y="190.0">java.l..</text>
</g>
<g>
<title>one/nio/util/Utf8.read (137 samples, 9.25%)</title><rect x="799.6" y="195.0" width="109.1" height="15" fill="#53e453" rx="2" ry="2"/>
<text x="802.6" y="206.0">one/nio/util/..</text>
</g>
<g>
<title>one/nio/util/Utf8.read (137 samples, 9.25%)</title><rect x="799.6" y="179.0" width="109.1" height="15" fill="#61f261" rx="2" ry="2"/>
<text x="802.6" y="190.0">one/nio/util/..</text>
</g>
<g>
<title>char[] (78 samples, 5.27%)</title><rect x="799.6" y="163.0" width="62.1" height="15" fill="#5dcbcb" rx="2" ry="2"/>
<text x="802.6" y="174.0">char[]</text>
</g>
<g>
<title>java.lang.String (19 samples, 1.28%)</title><rect x="861.7" y="163.0" width="15.2" height="15" fill="#58c6c6" rx="2" ry="2"/>
<text x="864.7" y="174.0"></text>
</g>
<g>
<title>java/lang/String.&lt;init&gt; (40 samples, 2.70%)</title><rect x="876.9" y="163.0" width="31.8" height="15" fill="#53e453" rx="2" ry="2"/>
<text x="879.9" y="174.0">ja..</text>
</g>
<g>
<title>java/lang/String.&lt;init&gt; (40 samples, 2.70%)</title><rect x="876.9" y="147.0" width="31.8" height="15" fill="#69fa69" rx="2" ry="2"/>
<text x="879.9" y="158.0">ja..</text>
</g>
<g>
<title>java/lang/StringUTF16.compress (40 samples, 2.70%)</title><rect x="876.9" y="131.0" width="31.8" height="15" fill="#5bec5b" rx="2" ry="2"/>
<text x="879.9" y="142.0">ja..</text>
</g>
<g>
<title>byte[] (40 samples, 2.70%)</title><rect x="876.9" y="115.0" width="31.8" height="15" fill="#60cece" rx="2" ry="2"/>
<text x="879.9" y="126.0">by..</text>
</g>
<g>
<title>one/nio/http/HttpSession.startParsingRequestBody (21 samples, 1.42%)</title><rect x="908.7" y="211.0" width="16.8" height="15" fill="#61f261" rx="2" ry="2"/>
<text x="911.7" y="222.0"></text>
</g>
<g>
<title>byte[] (21 samples, 1.42%)</title><rect x="908.7" y="195.0" width="16.8" height="15" fill="#5ecccc" rx="2" ry="2"/>
<text x="911.7" y="206.0"></text>
</g>
<g>
<title>one/nio/http/Request.getHeader (51 samples, 3.44%)</title><rect x="925.5" y="211.0" width="40.6" height="15" fill="#68f968" rx="2" ry="2"/>
<text x="928.5" y="222.0">one..</text>
</g>
<g>
<title>java/lang/String.substring (51 samples, 3.44%)</title><rect x="925.5" y="195.0" width="40.6" height="15" fill="#53e453" rx="2" ry="2"/>
<text x="928.5" y="206.0">jav..</text>
</g>
<g>
<title>java/lang/StringLatin1.newString (51 samples, 3.44%)</title><rect x="925.5" y="179.0" width="40.6" height="15" fill="#63f463" rx="2" ry="2"/>
<text x="928.5" y="190.0">jav..</text>
</g>
<g>
<title>java.lang.String (28 samples, 1.89%)</title><rect x="925.5" y="163.0" width="22.3" height="15" fill="#6bd9d9" rx="2" ry="2"/>
<text x="928.5" y="174.0">j..</text>
</g>
<g>
<title>java/util/Arrays.copyOfRange (23 samples, 1.55%)</title><rect x="947.8" y="163.0" width="18.3" height="15" fill="#60f160" rx="2" ry="2"/>
<text x="950.8" y="174.0"></text>
</g>
<g>
<title>byte[] (23 samples, 1.55%)</title><rect x="947.8" y="147.0" width="18.3" height="15" fill="#60cece" rx="2" ry="2"/>
<text x="950.8" y="158.0"></text>
</g>
<g>
<title>one/nio/util/Utf8.read (281 samples, 18.97%)</title><rect x="966.1" y="211.0" width="223.9" height="15" fill="#66f766" rx="2" ry="2"/>
<text x="969.1" y="222.0">one/nio/util/Utf8.read</text>
</g>
<g>
<title>one/nio/util/Utf8.read (281 samples, 18.97%)</title><rect x="966.1" y="195.0" width="223.9" height="15" fill="#64f564" rx="2" ry="2"/>
<text x="969.1" y="206.0">one/nio/util/Utf8.read</text>
</g>
<g>
<title>char[] (147 samples, 9.93%)</title><rect x="966.1" y="179.0" width="117.1" height="15" fill="#55c3c3" rx="2" ry="2"/>
<text x="969.1" y="190.0">char[]</text>
</g>
<g>
<title>java.lang.String (45 samples, 3.04%)</title><rect x="1083.2" y="179.0" width="35.9" height="15" fill="#57c5c5" rx="2" ry="2"/>
<text x="1086.2" y="190.0">jav..</text>
</g>
<g>
<title>java/lang/String.&lt;init&gt; (89 samples, 6.01%)</title><rect x="1119.1" y="179.0" width="70.9" height="15" fill="#5dee5d" rx="2" ry="2"/>
<text x="1122.1" y="190.0">java/lan..</text>
</g>
<g>
<title>java/lang/String.&lt;init&gt; (89 samples, 6.01%)</title><rect x="1119.1" y="163.0" width="70.9" height="15" fill="#68f968" rx="2" ry="2"/>
<text x="1122.1" y="174.0">java/lan..</text>
</g>
<g>
<title>java/lang/StringUTF16.compress (89 samples, 6.01%)</title><rect x="1119.1" y="147.0" width="70.9" height="15" fill="#60f160" rx="2" ry="2"/>
<text x="1122.1" y="158.0">java/lan..</text>
</g>
<g>
<title>byte[] (89 samples, 6.01%)</title><rect x="1119.1" y="131.0" width="70.9" height="15" fill="#6bd9d9" rx="2" ry="2"/>
<text x="1122.1" y="142.0">byte[]</text>
</g>
</g>
</svg>
